<?xml version="1.0" encoding="UTF-8"?>
<svg version="1.1" xmlns="http://www.w3.org/2000/svg" width="879" height="274">
<path d="M0 0 C0.81563416 -0.0071553 1.63126831 -0.01431061 2.47161865 -0.02168274 C3.80103989 -0.02571609 3.80103989 -0.02571609 5.15731812 -0.02983093 C6.09768921 -0.03640213 7.0380603 -0.04297333 8.00692749 -0.04974365 C11.11874475 -0.06945133 14.23051375 -0.08113497 17.34237671 -0.09111023 C18.40741802 -0.09518576 19.47245934 -0.09926128 20.56977463 -0.10346031 C26.20930537 -0.12431238 31.84881186 -0.13861666 37.4883728 -0.147995 C43.29872494 -0.15904476 49.10869259 -0.19343093 54.91890907 -0.23316669 C59.39893277 -0.25937846 63.87886557 -0.267691 68.3589592 -0.27127647 C70.49985723 -0.27613227 72.64075148 -0.28771736 74.78157425 -0.30631447 C77.78733553 -0.33079784 80.79211157 -0.32972373 83.79794312 -0.32279968 C84.67207855 -0.33560974 85.54621399 -0.3484198 86.44683838 -0.36161804 C96.32494788 -0.27923076 105.3361948 3.83516665 112.86581421 10.14717102 C119.38684387 17.09348523 124.95378799 25.50154038 125.01298523 35.28135681 C125.02371819 36.50480804 125.02371819 36.50480804 125.03466797 37.75297546 C125.03735687 38.63925629 125.04004578 39.52553711 125.04281616 40.43867493 C125.04938736 41.37904602 125.05595856 42.31941711 125.06272888 43.2882843 C125.08243656 46.40010156 125.0941202 49.51187056 125.10409546 52.62373352 C125.10817099 53.68877483 125.11224651 54.75381615 125.11644554 55.85113144 C125.13729761 61.49066218 125.15160189 67.13016867 125.16098022 72.76972961 C125.17202999 78.58008175 125.20641616 84.3900494 125.24615192 90.20026588 C125.27236369 94.68028958 125.28067623 99.16022239 125.2842617 103.64031601 C125.2891175 105.78121404 125.30070259 107.92210829 125.3192997 110.06293106 C125.34378307 113.06869234 125.34270896 116.07346839 125.33578491 119.07929993 C125.355 120.39050308 125.355 120.39050308 125.37460327 121.72819519 C125.29221599 131.6063047 121.17781858 140.61755162 114.86581421 148.14717102 C107.9195 154.66820068 99.51144485 160.2351448 89.73162842 160.29434204 C88.50817719 160.305075 88.50817719 160.305075 87.26000977 160.31602478 C86.37372894 160.31871368 85.48744812 160.32140259 84.5743103 160.32417297 C83.63393921 160.33074417 82.69356812 160.33731537 81.72470093 160.34408569 C78.61288367 160.36379337 75.50111467 160.37547701 72.38925171 160.38545227 C71.3242104 160.3895278 70.25916908 160.39360332 69.16185379 160.39780235 C63.52232305 160.41865442 57.88281656 160.4329587 52.24325562 160.44233704 C46.43290348 160.4533868 40.62293583 160.48777297 34.81271935 160.52750874 C30.33269565 160.5537205 25.85276284 160.56203304 21.37266922 160.56561852 C19.23177119 160.57047431 17.09087694 160.5820594 14.95005417 160.60065651 C11.94429289 160.62513989 8.93951684 160.62406577 5.9336853 160.61714172 C4.62248215 160.63635681 4.62248215 160.63635681 3.28479004 160.65596008 C-6.59331947 160.5735728 -15.60456639 156.45917539 -23.13418579 150.14717102 C-29.65521545 143.20085681 -35.22215957 134.79280166 -35.28135681 125.01298523 C-35.28851212 124.19735107 -35.29566742 123.38171692 -35.30303955 122.54136658 C-35.30572845 121.65508575 -35.30841736 120.76880493 -35.31118774 119.85566711 C-35.31775894 118.91529602 -35.32433014 117.97492493 -35.33110046 117.00605774 C-35.35080814 113.89424048 -35.36249178 110.78247148 -35.37246704 107.67060852 C-35.37858033 106.07304655 -35.37858033 106.07304655 -35.38481712 104.4432106 C-35.40566919 98.80367986 -35.41997347 93.16417337 -35.42935181 87.52461243 C-35.44040157 81.71426029 -35.47478774 75.90429264 -35.51452351 70.09407616 C-35.54073527 65.61405246 -35.54904781 61.13411966 -35.55263329 56.65402603 C-35.55748908 54.513128 -35.56907417 52.37223375 -35.58767128 50.23141098 C-35.61215466 47.2256497 -35.61108054 44.22087365 -35.60415649 41.21504211 C-35.61696655 40.34090668 -35.62977661 39.46677124 -35.64297485 38.56614685 C-35.56058757 28.68803735 -31.44619016 19.67679043 -25.13418579 12.14717102 C-18.18787158 5.62614136 -9.77981643 0.05919724 0 0 Z M16.99081421 48.20967102 C12.97859095 53.75597965 13.2556397 59.52119154 13.86581421 66.14717102 C15.5737161 71.56365989 19.39897993 74.9158441 23.86581421 78.14717102 C29.21313977 79.92961287 35.61964556 80.17073771 41.03378296 78.46357727 C46.0402908 75.80007089 49.75098678 72.13531577 51.72128296 66.85420227 C53.31848947 60.61057683 52.80748011 55.87683371 49.86581421 50.14717102 C47.10018193 45.68710206 43.88514733 42.78986186 38.86581421 41.14717102 C29.60928238 40.10291047 23.31284527 41.02798701 16.99081421 48.20967102 Z M58.86581421 41.14717102 C58.20581421 42.46717102 57.54581421 43.78717102 56.86581421 45.14717102 C58.62839884 48.33655118 58.62839884 48.33655118 61.80331421 49.58467102 C65.03489188 51.23343514 66.3256833 51.89578355 67.86581421 55.14717102 C68.59069101 59.8364975 68.31045455 63.22368723 66.24081421 67.52217102 C63.65904815 70.37570192 61.40586189 71.6989697 57.86581421 73.14717102 C57.82309321 74.81329007 57.82517589 76.48099987 57.86581421 78.14717102 C58.19581421 78.47717102 58.52581421 78.80717102 58.86581421 79.14717102 C64.43397085 79.03580789 67.42934415 77.5186787 71.35800171 73.81904602 C75.24086915 69.51369041 76.67181576 64.87012535 76.86581421 59.14717102 C75.67293078 52.62684705 72.82047176 47.55131106 67.86581421 43.14717102 C64.43082703 41.26610662 62.87158918 41.14717102 58.86581421 41.14717102 Z M5.56503296 95.02998352 C0.83788478 100.91990148 0.08718875 108.82509703 0.86581421 116.14717102 C1.19581421 117.13717102 1.52581421 118.12717102 1.86581421 119.14717102 C4.76907845 120.50226944 4.76907845 120.50226944 7.01815796 119.10810852 C9.59389928 116.37444648 9.36471246 114.47803278 9.42831421 110.77217102 C9.52235006 105.95974809 9.94081225 103.04258539 12.86581421 99.14717102 C16.48872817 96.73189505 19.2264051 96.80764281 23.42050171 96.77607727 C24.15906403 96.7670488 24.89762634 96.75802032 25.65856934 96.74871826 C27.22028555 96.73422072 28.78206243 96.72533024 30.34384155 96.72163391 C32.72591241 96.70974539 35.10538451 96.66056985 37.48690796 96.61006165 C39.0064266 96.60059583 40.52596111 96.59336155 42.04550171 96.58857727 C42.75399261 96.56904495 43.46248352 96.54951263 44.19244385 96.52938843 C48.16731181 96.56541072 49.71108754 97.01644209 52.79208374 99.61958313 C53.47641479 100.45368713 54.16074585 101.28779114 54.86581421 102.14717102 C55.36081421 102.64217102 55.36081421 102.64217102 55.86581421 103.14717102 C56.07617326 105.26829144 56.23431522 107.39470521 56.36581421 109.52217102 C56.58161468 112.9981001 56.76336341 115.83981862 57.86581421 119.14717102 C60.74898185 120.4670837 60.74898185 120.4670837 63.05331421 119.27217102 C65.54137789 116.35513084 65.30560816 114.29010689 65.12362671 110.55342102 C64.44176426 104.18937153 63.08728877 99.14628563 58.86581421 94.14717102 C50.71486434 87.70304399 42.51933812 87.96551515 32.49081421 87.95967102 C31.39253296 87.94742493 30.29425171 87.93517883 29.16268921 87.92256165 C19.88594858 87.90587686 12.55949069 88.4065481 5.56503296 95.02998352 Z M70.86581421 89.14717102 C70.20581421 90.46717102 69.54581421 91.78717102 68.86581421 93.14717102 C70.62839884 96.33655118 70.62839884 96.33655118 73.80331421 97.58467102 C77.03751545 99.2347737 78.08009636 100.06132526 79.86581421 103.14717102 C80.26389398 106.46589918 80.30444475 109.71289342 80.36190796 113.05342102 C80.95671707 116.70527231 82.04070367 117.85563007 84.86581421 120.14717102 C87.21680598 118.45739568 88.68368683 117.1057362 89.23690796 114.19404602 C89.4866671 105.79038544 87.17811276 98.68717838 81.41268921 92.52217102 C77.99294249 89.48239616 75.36016146 89.14717102 70.86581421 89.14717102 Z " fill="#7C35A2" transform="translate(93.13418579101563,44.85282897949219)"/>
<path d="M0 0 C10 0 10 0 12.12329102 1.8371582 C12.77575806 3.14946411 12.77575806 3.14946411 13.44140625 4.48828125 C13.99070801 5.4932666 14.54000977 6.49825195 15.10595703 7.53369141 C15.73099121 8.67757324 16.35602539 9.82145508 17 11 C18.70278836 13.65738315 20.48873378 16.25531626 22.27734375 18.85546875 C23.12160185 20.09880241 23.96524932 21.34255087 24.80834961 22.58666992 C25.84096924 24.10494385 26.87358887 25.62321777 27.9375 27.1875 C31.258125 32.075625 34.57875 36.96375 38 42 C38.33 28.14 38.66 14.28 39 0 C41.64 0 44.28 0 47 0 C47 18.48 47 36.96 47 56 C38 56 38 56 35.79296875 54.2265625 C35.26316406 53.36804688 34.73335937 52.50953125 34.1875 51.625 C33.54039062 50.6246875 32.89328125 49.624375 32.2265625 48.59375 C31.87754883 48.0265625 31.52853516 47.459375 31.16894531 46.875 C29.38356356 44.01122977 27.48785085 41.22344149 25.60473633 38.42333984 C24.13269704 36.22961214 22.67687687 34.02587631 21.22265625 31.8203125 C17.21928123 25.83223398 13.10005452 19.92230098 9 14 C8.67 27.86 8.34 41.72 8 56 C5.36 56 2.72 56 0 56 C0 37.52 0 19.04 0 0 Z " fill="#642E84" transform="translate(484,101)"/>
<path d="M0 0 C2.97 0 5.94 0 9 0 C11.64 9.24 14.28 18.48 17 28 C19.46409096 21.43819342 19.46409096 21.43819342 21.82421875 14.84375 C22.13037109 13.9671875 22.43652344 13.090625 22.75195312 12.1875 C23.06068359 11.300625 23.36941406 10.41375 23.6875 9.5 C24.00783203 8.5821875 24.32816406 7.664375 24.65820312 6.71875 C25.43962479 4.4794521 26.22020686 2.23986541 27 0 C29.64 0 32.28 0 35 0 C38.90216223 9.13565041 41.91697676 18.56594888 45 28 C45.23710693 27.22285645 45.47421387 26.44571289 45.71850586 25.64501953 C46.78967932 22.13778605 47.86355466 18.63138565 48.9375 15.125 C49.31068359 13.90167969 49.68386719 12.67835938 50.06835938 11.41796875 C50.42607422 10.25136719 50.78378906 9.08476563 51.15234375 7.8828125 C51.6472229 6.26463623 51.6472229 6.26463623 52.15209961 4.61376953 C53 2 53 2 54 0 C56.31 0 58.62 0 61 0 C59.64630195 8.71041764 56.80717214 16.84880641 53.875 25.125 C53.40173567 26.47634969 52.92907501 27.82791096 52.45703125 29.1796875 C51.31162692 32.45559005 50.15811447 35.72856591 49 39 C46.36 39 43.72 39 41 39 C37.7 30.09 34.4 21.18 31 12 C28.45736209 18.35659478 25.99399004 24.66780417 23.75 31.125 C23.481875 31.89070313 23.21375 32.65640625 22.9375 33.4453125 C22.28969432 35.29618586 21.64455082 37.14799065 21 39 C18.36 39 15.72 39 13 39 C11.14666022 33.60719075 9.29529903 28.21370802 7.44580078 22.81958008 C6.81581641 20.98312847 6.18528346 19.14686495 5.55419922 17.31079102 C4.64928577 14.67773437 3.74632156 12.04401643 2.84375 9.41015625 C2.55939087 8.58411392 2.27503174 7.75807159 1.98205566 6.90699768 C0 1.11387171 0 1.11387171 0 0 Z " fill="#652F87" transform="translate(609,118)"/>
<path d="M0 0 C1.10794922 -0.0309375 1.10794922 -0.0309375 2.23828125 -0.0625 C7.48724722 -0.09952974 11.05758936 0.8913809 15.75 3.25 C15.09 5.23 14.43 7.21 13.75 9.25 C12.68072266 9.0334375 12.68072266 9.0334375 11.58984375 8.8125 C3.07500621 7.16224885 -3.37910341 6.15713377 -11.25 10.25 C-12.67041821 13.09083641 -12.56452272 15.10477278 -12.25 18.25 C-9.00496553 22.60495488 -4.84638272 23.69537516 0.125 25.25 C12.68263428 29.21786361 12.68263428 29.21786361 16.625 35 C18.21264818 39.58653919 18.70197079 43.59846554 17.05859375 48.17578125 C14.34148562 53.48494233 10.42251619 56.35916127 4.75 58.25 C-4.92533826 58.87987794 -13.52368956 59.05268683 -22.25 54.25 C-21.26 51.28 -21.26 51.28 -20.25 48.25 C-19.39277344 48.4665625 -18.53554687 48.683125 -17.65234375 48.90625 C-8.35112998 51.17125809 -1.46856187 51.83766649 7.75 49.25 C8.0006019 47.83696762 8.22461921 46.41920526 8.4375 45 C8.56511719 44.21109375 8.69273437 43.4221875 8.82421875 42.609375 C8.90095297 40.22189039 8.90095297 40.22189039 7.7890625 38.140625 C4.7574626 35.32971628 1.33900573 34.45658291 -2.5625 33.25 C-9.59665125 31.04082739 -16.18806607 28.87736588 -20.25 22.25 C-21.60358177 18.1892547 -22.07031176 14.49531048 -20.56640625 10.37890625 C-16.12889555 1.81690429 -9.06640241 0.0619925 0 0 Z " fill="#692E8C" transform="translate(274.25,99.75)"/>
<path d="M0 0 C2.31 0 4.62 0 7 0 C7.33 11.55 7.66 23.1 8 35 C12.5578976 30.08783899 12.5578976 30.08783899 17.06225586 25.12695312 C21.78092949 20.22746505 21.78092949 20.22746505 25.51220703 19.53125 C27.72794831 19.53125 29.81279256 19.65780327 32 20 C30.60014836 21.63885071 29.19920688 23.27678227 27.79296875 24.91015625 C26.55864988 26.34885035 25.33253049 27.79460656 24.11328125 29.24609375 C23.49839844 29.96925781 22.88351562 30.69242188 22.25 31.4375 C21.67765625 32.11683594 21.1053125 32.79617187 20.515625 33.49609375 C19 35 19 35 17 35 C17.45686551 39.78415772 19.39755481 41.91436528 22.6875 45.3125 C26.80708011 49.67440835 30.54515631 54.09861607 34 59 C25.63984012 60.05973858 25.63984012 60.05973858 22.0234375 57.72265625 C20.21352571 55.9003478 18.60525256 54.0046816 17 52 C15.73144665 50.58129136 14.46063704 49.16459672 13.1875 47.75 C11.26089902 45.54565105 9.63158533 43.44737799 8 41 C7.67 46.94 7.34 52.88 7 59 C4.69 59 2.38 59 0 59 C0 39.53 0 20.06 0 0 Z " fill="#653584" transform="translate(753,98)"/>
<path d="M0 0 C3.34207522 2.45125374 4.87779749 4.68417372 6.18359375 8.6015625 C6.26738003 10.8854142 6.2908929 13.1716635 6.28125 15.45703125 C6.27983505 16.11866776 6.2784201 16.78030426 6.27696228 17.46199036 C6.27137371 19.57106078 6.2588234 21.68002427 6.24609375 23.7890625 C6.24107727 25.22070159 6.23651462 26.65234235 6.23242188 28.08398438 C6.22140805 31.58987838 6.2041513 35.09571 6.18359375 38.6015625 C4.20359375 38.6015625 2.22359375 38.6015625 0.18359375 38.6015625 C0.18359375 37.9415625 0.18359375 37.2815625 0.18359375 36.6015625 C-0.53828125 37.0965625 -1.26015625 37.5915625 -2.00390625 38.1015625 C-7.08596705 40.6425929 -13.32081407 40.47507966 -18.81640625 39.6015625 C-22.14330889 37.34369229 -24.59268206 35.49523036 -25.81640625 31.6015625 C-26.15478422 27.87940488 -26.1115903 25.32312351 -24.69140625 21.8515625 C-21.57426779 18.11099635 -17.51378678 16.51100207 -12.81640625 15.6015625 C-10.73406033 15.53412902 -8.64972068 15.51641778 -6.56640625 15.5390625 C-5.48875 15.54808594 -4.41109375 15.55710938 -3.30078125 15.56640625 C-2.4809375 15.57800781 -1.66109375 15.58960938 -0.81640625 15.6015625 C-1.84675957 10.63343983 -1.84675957 10.63343983 -4.75390625 6.6015625 C-10.59442196 4.69445533 -16.97519136 6.00725443 -22.81640625 7.6015625 C-23.47640625 5.6215625 -24.13640625 3.6415625 -24.81640625 1.6015625 C-17.41446253 -1.95137048 -7.62138376 -3.78426544 0 0 Z M-17.87890625 24.4140625 C-19.08543693 26.62906116 -19.08543693 26.62906116 -18.19140625 29.2265625 C-16.89588857 31.86790721 -16.89588857 31.86790721 -13.81640625 33.6015625 C-9.70061204 34.06750147 -7.21406753 33.76785722 -3.37890625 32.1640625 C-0.48134844 29.26650469 -0.44753262 28.74180947 -0.44140625 24.8515625 C-0.53752655 23.43264378 -0.6533912 22.01435956 -0.81640625 20.6015625 C-9.97337949 20.25777177 -9.97337949 20.25777177 -17.87890625 24.4140625 Z " fill="#663087" transform="translate(425.81640625,118.3984375)"/>
<path d="M0 0 C5.50273584 4.02639208 8.31331444 8.17482291 9.5625 14.875 C10.18557912 21.03903267 9.5631577 26.38979772 6.5625 31.875 C2.71888253 36.5496699 -1.12032242 39.49615799 -7.2421875 40.1953125 C-12.51756096 40.39264567 -17.51630053 40.50389228 -21.96875 37.3828125 C-26.78802417 32.43536615 -28.73907186 26.62272457 -29 19.8125 C-28.69385321 13.01604129 -26.72115138 7.74798077 -22.5 2.4375 C-16.05938348 -2.44175494 -7.45880164 -2.44106235 0 0 Z M-19.4375 9.875 C-22.18971466 15.02044479 -21.68131121 20.32291519 -20.4375 25.875 C-18.66975427 29.41049147 -17.47655303 31.27344298 -14.0625 33.25 C-9.19865789 34.40805765 -6.62318833 34.55905096 -2.1875 32 C1.66226103 28.42377462 2.32242458 23.95530574 2.5625 18.875 C2.24244538 14.37862297 1.0269701 11.42075237 -1.9375 7.9375 C-4.89364189 5.49868294 -5.86751711 4.94076726 -9.6875 4.5 C-14.48868528 4.98011853 -16.17205434 6.38173255 -19.4375 9.875 Z " fill="#692E8D" transform="translate(326.4375,118.125)"/>
<path d="M0 0 C5.50273584 4.02639208 8.31331444 8.17482291 9.5625 14.875 C10.18557912 21.03903267 9.5631577 26.38979772 6.5625 31.875 C2.71888253 36.5496699 -1.12032242 39.49615799 -7.2421875 40.1953125 C-12.51756096 40.39264567 -17.51630053 40.50389228 -21.96875 37.3828125 C-26.78802417 32.43536615 -28.73907186 26.62272457 -29 19.8125 C-28.69385321 13.01604129 -26.72115138 7.74798077 -22.5 2.4375 C-16.05938348 -2.44175494 -7.45880164 -2.44106235 0 0 Z M-19.4375 9.875 C-22.18971466 15.02044479 -21.68131121 20.32291519 -20.4375 25.875 C-18.66975427 29.41049147 -17.47655303 31.27344298 -14.0625 33.25 C-9.19865789 34.40805765 -6.62318833 34.55905096 -2.1875 32 C1.66226103 28.42377462 2.32242458 23.95530574 2.5625 18.875 C2.24244538 14.37862297 1.0269701 11.42075237 -1.9375 7.9375 C-4.89364189 5.49868294 -5.86751711 4.94076726 -9.6875 4.5 C-14.48868528 4.98011853 -16.17205434 6.38173255 -19.4375 9.875 Z " fill="#673089" transform="translate(703.4375,118.125)"/>
<path d="M0 0 C4.12298553 3.36570247 5.25682323 5.44410504 7.0625 10.5 C7.0625 13.8 7.0625 17.1 7.0625 20.5 C-1.8475 20.5 -10.7575 20.5 -19.9375 20.5 C-17.30143651 28.20955299 -17.30143651 28.20955299 -11.9375 32.5 C-9.02699101 32.89925615 -9.02699101 32.89925615 -5.9375 32.75 C-4.90625 32.73453125 -3.875 32.7190625 -2.8125 32.703125 C-0.37226759 32.53071728 1.72770594 32.19594823 4.0625 31.5 C4.7225 33.15 5.3825 34.8 6.0625 36.5 C1.89848751 39.54013339 -1.7239513 40.04640695 -6.75 40 C-7.46124023 39.99427979 -8.17248047 39.98855957 -8.90527344 39.98266602 C-14.74037291 39.78401579 -18.88246827 38.77971686 -22.9375 34.5 C-27.54672495 28.40875287 -28.76281099 21.96267122 -27.9375 14.5 C-26.18049177 7.73300831 -23.79329936 3.36233575 -17.9375 -0.5 C-12.28803862 -2.38315379 -5.44725125 -2.68226905 0 0 Z M-17.9375 7.5 C-19.97421629 10.50658118 -19.9375 11.69096596 -19.9375 15.5 C-13.3375 15.5 -6.7375 15.5 0.0625 15.5 C-0.23927856 8.8547909 -0.23927856 8.8547909 -3.0625 6.0625 C-8.45768317 3.13033523 -13.17825776 3.6926062 -17.9375 7.5 Z " fill="#673089" transform="translate(568.9375,118.5)"/>
<path d="M0 0 C1.134375 0.020625 2.26875 0.04125 3.4375 0.0625 C3.4375 4.0225 3.4375 7.9825 3.4375 12.0625 C6.7375 12.0625 10.0375 12.0625 13.4375 12.0625 C13.4375 14.0425 13.4375 16.0225 13.4375 18.0625 C10.1375 18.0625 6.8375 18.0625 3.4375 18.0625 C3.57592295 22.02112931 3.72449006 25.97931327 3.875 29.9375 C3.91431641 31.06542969 3.95363281 32.19335938 3.99414062 33.35546875 C4.03603516 34.43183594 4.07792969 35.50820312 4.12109375 36.6171875 C4.15775146 37.61218262 4.19440918 38.60717773 4.23217773 39.63232422 C4.28709532 42.07029501 4.28709532 42.07029501 5.4375 44.0625 C7.56326782 44.52901207 7.56326782 44.52901207 10 44.6875 C10.82628906 44.76226562 11.65257812 44.83703125 12.50390625 44.9140625 C13.14199219 44.96304688 13.78007813 45.01203125 14.4375 45.0625 C14.7675 46.7125 15.0975 48.3625 15.4375 50.0625 C11.49239381 52.0350531 6.73816993 51.50375371 2.4375 51.0625 C-0.91207784 49.28517298 -2.09885808 48.06461726 -3.67578125 44.65625 C-4.95142274 39.48624923 -4.77237975 34.48921949 -4.6875 29.1875 C-4.67847656 28.11757812 -4.66945313 27.04765625 -4.66015625 25.9453125 C-4.63669342 23.31747561 -4.60386459 20.69010594 -4.5625 18.0625 C-6.2125 18.0625 -7.8625 18.0625 -9.5625 18.0625 C-9.5625 16.0825 -9.5625 14.1025 -9.5625 12.0625 C-7.9125 12.0625 -6.2625 12.0625 -4.5625 12.0625 C-4.57410156 11.28003906 -4.58570313 10.49757813 -4.59765625 9.69140625 C-4.60667969 8.67949219 -4.61570312 7.66757813 -4.625 6.625 C-4.63660156 5.61566406 -4.64820313 4.60632813 -4.66015625 3.56640625 C-4.50618986 -0.38129207 -4.09874205 0.07190776 0 0 Z " fill="#682E8C" transform="translate(591.5625,105.9375)"/>
<path d="M0 0 C1.02867187 -0.01417969 2.05734375 -0.02835937 3.1171875 -0.04296875 C6.17963488 0.19168631 8.35748861 0.89565428 11.125 2.1875 C10.795 4.1675 10.465 6.1475 10.125 8.1875 C8.8875 7.94 8.8875 7.94 7.625 7.6875 C2.57545528 6.96613647 -1.94072487 6.34651081 -6.75 8.4375 C-9.94143874 11.06574367 -10.77053287 13.12519144 -11.17578125 17.24609375 C-11.17964844 18.36113281 -11.18351562 19.47617188 -11.1875 20.625 C-11.20425781 21.73746094 -11.22101563 22.84992188 -11.23828125 23.99609375 C-10.83283377 27.55792803 -10.07243793 29.37497786 -7.875 32.1875 C-3.12642634 35.42119127 2.7585007 34.57386723 8.1875 33.6875 C8.826875 33.5225 9.46625 33.3575 10.125 33.1875 C10.455 35.1675 10.785 37.1475 11.125 39.1875 C7.04475282 41.1234963 3.68646694 41.48534538 -0.8125 41.5 C-1.99714844 41.51675781 -3.18179687 41.53351563 -4.40234375 41.55078125 C-8.93592917 41.07651416 -12.27019438 39.79611751 -15.51953125 36.5390625 C-17.84251087 33.10509263 -19.57283991 30.41774122 -19.875 26.1875 C-19.92527344 25.53007812 -19.97554688 24.87265625 -20.02734375 24.1953125 C-20.31560758 17.53065281 -19.59731474 11.21607515 -15 6.1015625 C-10.05290623 1.64554054 -6.73836999 0.04200979 0 0 Z " fill="#672E8B" transform="translate(362.875,116.8125)"/>
<path d="M0 0 C3.12578143 1.6720747 5.39281175 3.7856235 7 7 C7.51512617 11.09157355 7.94367269 15.23589546 5.953125 18.95703125 C3.55501226 21.85592636 1.60351712 23.79811835 -2.171875 24.2734375 C-9.98876369 24.58137554 -9.98876369 24.58137554 -13.5625 21.625 C-17.3057723 17.59378368 -17.39037018 14.90519941 -17.359375 9.55078125 C-16.78039966 5.44131496 -15.00085071 3.78650423 -12 1 C-8.27533151 -0.86233425 -4.05504687 -0.57130829 0 0 Z " fill="#78339D" transform="translate(131,93)"/>
<path d="M0 0 C2.31 0 4.62 0 7 0 C7.33 17.49 7.66 34.98 8 53 C9.98 53 11.96 53 14 53 C14.33 54.98 14.66 56.96 15 59 C13.25138208 59.10853491 11.50080759 59.18583428 9.75 59.25 C8.77546875 59.29640625 7.8009375 59.3428125 6.796875 59.390625 C3.18625431 58.88634837 2.25207856 57.81819427 0 55 C-0.48101807 52.43096924 -0.48101807 52.43096924 -0.45410156 49.49707031 C-0.45379944 48.39623108 -0.45349731 47.29539185 -0.45318604 46.16119385 C-0.43254089 44.97878113 -0.41189575 43.79636841 -0.390625 42.578125 C-0.38496521 41.36300232 -0.37930542 40.14787964 -0.37347412 38.89593506 C-0.35107734 35.01355657 -0.30087187 31.13209972 -0.25 27.25 C-0.2299394 24.61850291 -0.21168787 21.98699136 -0.1953125 19.35546875 C-0.15120153 12.90333119 -0.08425519 6.45173144 0 0 Z " fill="#6A2D8E" transform="translate(444,98)"/>
<path d="M0 0 C1.125 1.625 1.125 1.625 2 4 C1.08643612 8.06951181 -0.12622716 10.12622716 -3 13 C-3.72197162 15.60611077 -3.72197162 15.60611077 -4 18 C-4.598125 17.79375 -5.19625 17.5875 -5.8125 17.375 C-8.28450846 16.69328085 -8.28450846 16.69328085 -11 19 C-12.32 19 -13.64 19 -15 19 C-15 19.66 -15 20.32 -15 21 C-13.68 21 -12.36 21 -11 21 C-11 21.66 -11 22.32 -11 23 C-9.68 22.67 -8.36 22.34 -7 22 C-7 21.01 -7 20.02 -7 19 C-5.01432292 18.51171875 -3.02864583 18.0234375 -1.04296875 17.53515625 C0.65683202 17.08989295 2.33301954 16.55566015 4 16 C3.505 14.515 3.505 14.515 3 13 C4.5 9.875 4.5 9.875 7 7 C10.75 6.125 10.75 6.125 14 6 C11.78065836 9.32901247 10.65316671 9.75023244 7 11 C7 12.65 7 14.3 7 16 C11.455 15.505 11.455 15.505 16 15 C15.67 16.32 15.34 17.64 15 19 C13.39125 18.938125 13.39125 18.938125 11.75 18.875 C8.34252515 18.9885825 6.79260369 19.21273364 4 21 C4.66 21 5.32 21 6 21 C6 21.66 6 22.32 6 23 C5.01 23 4.02 23 3 23 C2.67 23.66 2.34 24.32 2 25 C1.505 25.495 1.505 25.495 1 26 C1.75539062 26.23847656 2.51078125 26.47695312 3.2890625 26.72265625 C6.43804948 28.20640083 7.50151541 29.54168244 9.375 32.4375 C10.16003906 33.61119141 10.16003906 33.61119141 10.9609375 34.80859375 C12 37 12 37 11 40 C10.72027344 39.46890625 10.44054687 38.9378125 10.15234375 38.390625 C7.11377383 33.03648893 4.66013506 30.48251538 -1 28 C-7.12528051 26.74327763 -13.14749924 26.81612908 -19.375 26.8125 C-20.47328125 26.80025391 -21.5715625 26.78800781 -22.703125 26.77539062 C-30.25946704 26.76180008 -37.30109585 27.09230591 -44 31 C-44 30.01 -44 29.02 -44 28 C-40.53446727 25.68964485 -38.07353391 25.58193342 -34 25 C-33.01 24.34 -32.02 23.68 -31 23 C-30.34 23 -29.68 23 -29 23 C-28.67 21.68 -28.34 20.36 -28 19 C-29.65 19 -31.3 19 -33 19 C-32.67 17.02 -32.34 15.04 -32 13 C-31.0925 13.495 -30.185 13.99 -29.25 14.5 C-23.54484565 16.92353101 -16.7090227 17.2319254 -10.8125 15.2734375 C-6.44924626 12.96016073 -3.02541607 9.81256979 -1.31640625 5.125 C-0.82149703 3.43206914 -0.40397695 1.71690206 0 0 Z " fill="#753799" transform="translate(145,107)"/>
<path d="M0 0 C1.98 0 3.96 0 6 0 C6 1.32 6 2.64 6 4 C6.94875 3.34 7.8975 2.68 8.875 2 C13.46035076 -0.67400332 17.83628477 -0.37403169 23 0 C24 2 24 2 23.4375 4.55078125 C22 7 22 7 19.25 7.85546875 C17.64125 8.01982422 17.64125 8.01982422 16 8.1875 C11.4868136 8.47721161 11.4868136 8.47721161 8 11 C7.62731113 13.91188245 7.62731113 13.91188245 7.5859375 17.3203125 C7.54726563 18.57714844 7.50859375 19.83398438 7.46875 21.12890625 C7.42234375 23.10697266 7.42234375 23.10697266 7.375 25.125 C7.33681971 26.46486918 7.29776794 27.80471383 7.2578125 29.14453125 C7.1632797 32.42954619 7.07772844 35.71455138 7 39 C4.69 39 2.38 39 0 39 C0 26.13 0 13.26 0 0 Z " fill="#692F8E" transform="translate(723,118)"/>
<path d="M0 0 C2.64 0 5.28 0 8 0 C8 12.87 8 25.74 8 39 C5.36 39 2.72 39 0 39 C0 26.13 0 13.26 0 0 Z " fill="#692E8C" transform="translate(383,118)"/>
<path d="M0 0 C1.60488281 0.00483398 1.60488281 0.00483398 3.2421875 0.00976562 C4.35335937 0.01814453 5.46453125 0.02652344 6.609375 0.03515625 C8.29933594 0.04192383 8.29933594 0.04192383 10.0234375 0.04882812 C12.80213717 0.06060228 15.58072909 0.07704785 18.359375 0.09765625 C18.359375 0.42765625 18.359375 0.75765625 18.359375 1.09765625 C16.42384766 1.18853516 16.42384766 1.18853516 14.44921875 1.28125 C12.73176245 1.36571506 11.01431498 1.45036002 9.296875 1.53515625 C8.44931641 1.57447266 7.60175781 1.61378906 6.72851562 1.65429688 C-3.93812091 2.05156236 -3.93812091 2.05156236 -13.640625 6.09765625 C-13.970625 7.41765625 -14.300625 8.73765625 -14.640625 10.09765625 C-17.280625 10.75765625 -19.920625 11.41765625 -22.640625 12.09765625 C-22.66125 12.81953125 -22.681875 13.54140625 -22.703125 14.28515625 C-23.77452003 17.49934135 -24.25500937 17.67966323 -27.015625 19.34765625 C-30.97019154 21.90266426 -32.00242372 24.59773607 -33.328125 29.01171875 C-33.82987726 31.28538947 -33.82987726 31.28538947 -32.640625 34.09765625 C-32.970625 34.75765625 -33.300625 35.41765625 -33.640625 36.09765625 C-32.650625 36.42765625 -31.660625 36.75765625 -30.640625 37.09765625 C-30.640625 37.75765625 -30.640625 38.41765625 -30.640625 39.09765625 C-31.300625 39.09765625 -31.960625 39.09765625 -32.640625 39.09765625 C-35.13246812 42.89978288 -34.94703673 46.78571369 -34.95947266 51.17089844 C-34.96951828 51.9810289 -34.9795639 52.79115936 -34.98991394 53.62583923 C-35.02075966 56.29872948 -35.0377849 58.97151949 -35.0546875 61.64453125 C-35.07339803 63.4997036 -35.09297136 65.35486744 -35.1133728 67.21002197 C-35.16471211 72.08928404 -35.20432824 76.96857371 -35.24151611 81.84796143 C-35.28154445 86.828398 -35.33264214 91.80871959 -35.3828125 96.7890625 C-35.47959311 106.558513 -35.56399111 116.3280284 -35.640625 126.09765625 C-34.980625 126.09765625 -34.320625 126.09765625 -33.640625 126.09765625 C-32.69738242 130.40962234 -32.16020785 134.71831506 -31.640625 139.09765625 C-34.24108408 137.79742671 -34.31255274 136.860987 -35.2403717 134.15135193 C-36.81605172 129.11992482 -37.07185333 124.48031512 -37.04467773 119.23852539 C-37.05154099 118.29742416 -37.05840424 117.35632294 -37.06547546 116.38670349 C-37.08365031 113.30191599 -37.07991933 110.21764161 -37.07421875 107.1328125 C-37.07878491 104.97244605 -37.08409177 102.81208105 -37.09010315 100.65171814 C-37.09901591 96.13371869 -37.09663186 91.61589618 -37.08666992 87.09790039 C-37.07518093 81.32686967 -37.09540051 75.55645091 -37.12458706 69.78550053 C-37.14298982 65.32690087 -37.14264848 60.86844678 -37.13694954 56.40981865 C-37.13679683 54.28289367 -37.14279889 52.1559585 -37.15524101 50.0290699 C-37.17022678 47.0477237 -37.15941828 44.06749445 -37.14233398 41.08618164 C-37.15200195 40.21990143 -37.16166992 39.35362122 -37.17163086 38.46109009 C-37.05429861 28.6140124 -32.93303894 19.60390614 -26.640625 12.09765625 C-19.00707499 4.93146645 -10.59677992 -0.05636585 0 0 Z " fill="#663187" transform="translate(94.640625,44.90234375)"/>
<path d="M0 0 C0 19.14 0 38.28 0 58 C-1.65 57.67 -3.3 57.34 -5 57 C-5 38.85 -5 20.7 -5 2 C-1 0 -1 0 0 0 Z " fill="#6A2E8D" transform="translate(759,98)"/>
<path d="M0 0 C1.02867187 -0.01417969 2.05734375 -0.02835937 3.1171875 -0.04296875 C6.17963488 0.19168631 8.35748861 0.89565428 11.125 2.1875 C10.795 4.1675 10.465 6.1475 10.125 8.1875 C8.8875 7.94 8.8875 7.94 7.625 7.6875 C2.57545528 6.96613647 -1.94072487 6.34651081 -6.75 8.4375 C-9.80174947 10.95070544 -10.71099728 13.07970805 -11.2890625 16.984375 C-11.35867188 17.95890625 -11.42828125 18.9334375 -11.5 19.9375 C-11.57476562 20.92234375 -11.64953125 21.9071875 -11.7265625 22.921875 C-11.77554687 23.66953125 -11.82453125 24.4171875 -11.875 25.1875 C-11.99875 24.548125 -12.1225 23.90875 -12.25 23.25 C-12.45625 22.569375 -12.6625 21.88875 -12.875 21.1875 C-13.535 20.8575 -14.195 20.5275 -14.875 20.1875 C-13.39 14.7425 -13.39 14.7425 -11.875 9.1875 C-12.865 9.5175 -13.855 9.8475 -14.875 10.1875 C-14.99875 10.909375 -15.1225 11.63125 -15.25 12.375 C-15.875 15.1875 -15.875 15.1875 -17 17.4375 C-18.87329636 23.32500286 -17.03604795 29.56877534 -14.875 35.1875 C-14.215 35.1875 -13.555 35.1875 -12.875 35.1875 C-13.205 36.1775 -13.535 37.1675 -13.875 38.1875 C-19.53557441 30.93945822 -19.53557441 30.93945822 -19.875 26.1875 C-19.92527344 25.53007812 -19.97554688 24.87265625 -20.02734375 24.1953125 C-20.31560758 17.53065281 -19.59731474 11.21607515 -15 6.1015625 C-10.05290623 1.64554054 -6.73836999 0.04200979 0 0 Z " fill="#5F327D" transform="translate(362.875,116.8125)"/>
<path d="M0 0 C0.66 0.99 1.32 1.98 2 3 C1.34 3 0.68 3 0 3 C-0.53672929 11.49878601 -0.53672929 11.49878601 3 19 C6.8065136 21.76455403 9.76513277 23.0882048 14.5 22.75 C15.325 22.5025 16.15 22.255 17 22 C15.02 21.34 13.04 20.68 11 20 C11 19.34 11 18.68 11 18 C10.05125 17.731875 9.1025 17.46375 8.125 17.1875 C5 16 5 16 3 13 C3.0234375 10.73828125 3.0234375 10.73828125 3.375 8.3125 C3.48585938 7.50425781 3.59671875 6.69601563 3.7109375 5.86328125 C3.85402344 4.94095703 3.85402344 4.94095703 4 4 C4.66 4 5.32 4 6 4 C5.86979167 5.953125 5.73958333 7.90625 5.609375 9.859375 C6.19621265 13.07524531 7.4062897 14.01469088 10 16 C12.85003765 17.29836657 15.7737241 18.28258694 18.75 19.25 C19.54277344 19.518125 20.33554687 19.78625 21.15234375 20.0625 C23.09803689 20.71887841 25.04856818 21.36088477 27 22 C27 22.33 27 22.66 27 23 C24.36 23 21.72 23 19 23 C18.67 23.66 18.34 24.32 18 25 C19.0725 25.433125 20.145 25.86625 21.25 26.3125 C24.21007424 27.5079146 26.65198471 28.81117219 29 31 C29.828125 33.48046875 29.828125 33.48046875 30.25 36.1875 C30.39953125 37.08855469 30.5490625 37.98960937 30.703125 38.91796875 C30.80109375 39.60503906 30.8990625 40.29210937 31 41 C24.56263158 46.68003096 19.13455347 47.22323382 10.8046875 47.265625 C8.02405684 47.00227836 6.36957073 46.42854504 4 45 C6 44 6 44 8.1875 44.4375 C14.55643757 45.71128751 19.87048906 44.72056447 26 43 C26.2506019 41.58696762 26.47461921 40.16920526 26.6875 38.75 C26.81511719 37.96109375 26.94273437 37.1721875 27.07421875 36.359375 C27.15095297 33.97189039 27.15095297 33.97189039 26.0390625 31.890625 C23.0074626 29.07971628 19.58900573 28.20658291 15.6875 27 C8.65334875 24.79082739 2.06193393 22.62736588 -2 16 C-3.63547495 11.09357516 -3.57522753 7.31822976 -1.5 2.5625 C-1.005 1.716875 -0.51 0.87125 0 0 Z " fill="#61327E" transform="translate(256,106)"/>
<path d="M0 0 C0.33 1.32 0.66 2.64 1 4 C2.65 4.33 4.3 4.66 6 5 C6.33 5.99 6.66 6.98 7 8 C7.99 8 8.98 8 10 8 C10 7.34 10 6.68 10 6 C9.34 6 8.68 6 8 6 C8 5.34 8 4.68 8 4 C13.63319252 -0.1949306 13.63319252 -0.1949306 17.328125 0.33203125 C21.0504943 1.58309246 24.50569934 3.21735452 28 5 C24.93109813 6.53445094 22.29905734 5.54984289 19 5 C18.67 5.99 18.34 6.98 18 8 C18.90625 10.3125 18.90625 10.3125 21.875 11.4375 C24.55636479 12.7781824 26.08842741 13.76983197 28 16 C27.67 16.66 27.34 17.32 27 18 C26.46375 17.38125 25.9275 16.7625 25.375 16.125 C22.68896977 13.7217098 20.44585438 12.93977847 17 12 C17.33 12.33 17.66 12.66 18 13 C18.04080783 14.99958364 18.04254356 17.00045254 18 19 C17.01 18.67 16.02 18.34 15 18 C14.87625 17.195625 14.7525 16.39125 14.625 15.5625 C14.41875 14.716875 14.2125 13.87125 14 13 C13.34 12.67 12.68 12.34 12 12 C12 12.99 12 13.98 12 15 C12.66 15.33 13.32 15.66 14 16 C13.67 17.32 13.34 18.64 13 20 C13.66 20.33 14.32 20.66 15 21 C14.67 21.99 14.34 22.98 14 24 C13.34 23.67 12.68 23.34 12 23 C11.54296875 21.14453125 11.54296875 21.14453125 11.1875 18.8125 C10.16968191 13.84965053 8.66747499 11.50077158 5 8 C1.39259908 5.82052861 -1.83619849 4.61232375 -6 4 C-5.38125 3.71125 -4.7625 3.4225 -4.125 3.125 C-1.86674235 2.06279958 -1.86674235 2.06279958 0 0 Z " fill="#773499" transform="translate(133,82)"/>
<path d="M0 0 C0 1.32 0 2.64 0 4 C-1.65234375 5.59765625 -1.65234375 5.59765625 -3.9375 7.0625 C-4.66839844 7.54847656 -5.39929688 8.03445312 -6.15234375 8.53515625 C-14.15745313 12.65301087 -21.09879425 13.3864794 -30.03515625 13.07421875 C-31.7140519 13.03455742 -31.7140519 13.03455742 -33.42686462 12.99409485 C-36.97265457 12.90690647 -40.51735362 12.79755583 -44.0625 12.6875 C-46.47847756 12.6241816 -48.89449371 12.56231765 -51.31054688 12.50195312 C-57.20758192 12.35145834 -63.10388277 12.18280415 -69 12 C-69 11.67 -69 11.34 -69 11 C-67.86457764 10.98018066 -66.72915527 10.96036133 -65.55932617 10.93994141 C-61.34913856 10.86390316 -57.13929737 10.77518314 -52.92944336 10.68261719 C-51.10692176 10.64432005 -49.28432437 10.60946845 -47.46166992 10.578125 C-44.84266059 10.53249021 -42.22417326 10.47449378 -39.60546875 10.4140625 C-38.38188911 10.39673569 -38.38188911 10.39673569 -37.1335907 10.37905884 C-33.26635496 10.27802726 -31.28840215 10.1922681 -28 8 C-24.29455413 7.80149397 -21.52994613 7.82335129 -18 9 C-15.94603274 8.59070014 -15.94603274 8.59070014 -14 8 C-13.34 8 -12.68 8 -12 8 C-12.495 5.03 -12.495 5.03 -13 2 C-11 1 -11 1 -8.5625 1.5625 C-4.9247078 2.18358647 -3.74339966 0 0 0 Z " fill="#8140A3" transform="translate(205,192)"/>
<path d="M0 0 C0.99 0.495 0.99 0.495 2 1 C2.33 9.91 2.66 18.82 3 28 C4.32 27.67 5.64 27.34 7 27 C7 18.09 7 9.18 7 0 C7.33 0 7.66 0 8 0 C8.02505615 0.71655762 8.0501123 1.43311523 8.07592773 2.17138672 C8.19169751 5.40611514 8.31450969 8.64053841 8.4375 11.875 C8.47681641 13.00292969 8.51613281 14.13085938 8.55664062 15.29296875 C8.61948242 16.90751953 8.61948242 16.90751953 8.68359375 18.5546875 C8.72025146 19.54968262 8.75690918 20.54467773 8.79467773 21.56982422 C8.84959532 24.00779501 8.84959532 24.00779501 10 26 C12.12576782 26.46651207 12.12576782 26.46651207 14.5625 26.625 C15.38878906 26.69976562 16.21507812 26.77453125 17.06640625 26.8515625 C17.70449219 26.90054688 18.34257813 26.94953125 19 27 C19.33 28.65 19.66 30.3 20 32 C16.05489381 33.9725531 11.30066993 33.44125371 7 33 C3.65042216 31.22267298 2.46364192 30.00211726 0.88671875 26.59375 C-0.38892274 21.42374923 -0.20987975 16.42671949 -0.125 11.125 C-0.11597656 10.05507812 -0.10695313 8.98515625 -0.09765625 7.8828125 C-0.07419342 5.25497561 -0.04136459 2.62760594 0 0 Z " fill="#5D3378" transform="translate(587,124)"/>
<path d="M0 0 C0.99 0 1.98 0 3 0 C3.24234375 0.54269531 3.4846875 1.08539063 3.734375 1.64453125 C4.06953125 2.35996094 4.4046875 3.07539063 4.75 3.8125 C5.07484375 4.52019531 5.3996875 5.22789062 5.734375 5.95703125 C7.25483961 8.41136147 8.47731165 9.58429552 11 11 C13.91050899 11.39925615 13.91050899 11.39925615 17 11.25 C18.546875 11.22679687 18.546875 11.22679687 20.125 11.203125 C22.56523241 11.03071728 24.66520594 10.69594823 27 10 C27.66 11.65 28.32 13.3 29 15 C24.83502149 18.04083868 21.21404889 18.54407707 16.1875 18.5 C15.47843506 18.49718018 14.76937012 18.49436035 14.03881836 18.49145508 C8.90643472 18.33281884 5.40354017 17.4008327 1.28515625 14.38671875 C0 13 0 13 -1 10 C-0.34 10 0.32 10 1 10 C1.680625 10.7115625 1.680625 10.7115625 2.375 11.4375 C4.22977487 13.22093737 5.50135592 13.5691993 8 14 C7.236875 13.175 6.47375 12.35 5.6875 11.5 C2.70294364 7.95583932 1.43446489 4.37889283 0 0 Z " fill="#603280" transform="translate(546,140)"/>
<path d="M0 0 C4.27421981 3.12747791 7.11752936 6.02666044 8.375 11.25 C8.436875 12.11625 8.49875 12.9825 8.5625 13.875 C7.5725 13.545 6.5825 13.215 5.5625 12.875 C4.85623761 10.88863702 4.19356429 8.88651741 3.5625 6.875 C2.26015582 4.27031163 1.35768571 3.15213403 -1.41015625 2.1875 C-3.40308602 1.68135911 -5.41997053 1.27189104 -7.4375 0.875 C-7.7675 1.535 -8.0975 2.195 -8.4375 2.875 C-7.365 3.266875 -6.2925 3.65875 -5.1875 4.0625 C-1.49269002 5.68132141 0.55609217 7.2634659 2.5625 10.875 C2.87548801 13.63545165 2.75191604 16.08111336 2.5625 18.875 C2.2325 18.875 1.9025 18.875 1.5625 18.875 C1.07421875 16.88932292 0.5859375 14.90364583 0.09765625 12.91796875 C-0.34760705 11.21816798 -0.88183985 9.54198046 -1.4375 7.875 C-5.40234697 5.65935022 -8.96081575 5.39535526 -13.4375 5.875 C-16.12889215 7.66926143 -18.15984173 9.59734173 -20.4375 11.875 C-21.0625 10 -21.0625 10 -21.4375 7.875 C-20.7775 7.215 -20.1175 6.555 -19.4375 5.875 C-19.7675 5.215 -20.0975 4.555 -20.4375 3.875 C-21.7575 4.865 -23.0775 5.855 -24.4375 6.875 C-20.78911121 -2.74347954 -8.33963979 -2.72933666 0 0 Z " fill="#633280" transform="translate(326.4375,118.125)"/>
<path d="M0 0 C2.31 0 4.62 0 7 0 C7.33 17.49 7.66 34.98 8 53 C9.98 53 11.96 53 14 53 C14.33 54.98 14.66 56.96 15 59 C13.25138208 59.10853491 11.50080759 59.18583428 9.75 59.25 C8.77546875 59.29640625 7.8009375 59.3428125 6.796875 59.390625 C3.18625431 58.88634837 2.25207856 57.81819427 0 55 C-0.48101807 52.43096924 -0.48101807 52.43096924 -0.45410156 49.49707031 C-0.45379944 48.39623108 -0.45349731 47.29539185 -0.45318604 46.16119385 C-0.43254089 44.97878113 -0.41189575 43.79636841 -0.390625 42.578125 C-0.38496521 41.36300232 -0.37930542 40.14787964 -0.37347412 38.89593506 C-0.35107734 35.01355657 -0.30087187 31.13209972 -0.25 27.25 C-0.2299394 24.61850291 -0.21168787 21.98699136 -0.1953125 19.35546875 C-0.15120153 12.90333119 -0.08425519 6.45173144 0 0 Z M1 1 C1 17.83 1 34.66 1 52 C1.99 52.33 2.98 52.66 4 53 C4.33 54.65 4.66 56.3 5 58 C7.97 58 10.94 58 14 58 C13.505 56.515 13.505 56.515 13 55 C11.02 54.67 9.04 54.34 7 54 C6.67 36.51 6.34 19.02 6 1 C4.35 1 2.7 1 1 1 Z " fill="#5E3674" transform="translate(444,98)"/>
<path d="M0 0 C0.66 0.33 1.32 0.66 2 1 C1.67515625 1.90492187 1.67515625 1.90492187 1.34375 2.828125 C1.0653125 3.62734375 0.786875 4.4265625 0.5 5.25 C0.2215625 6.03890625 -0.056875 6.8278125 -0.34375 7.640625 C-1.39774461 11.42998656 -0.96165133 14.74150478 -0.125 18.5 C0.03742188 19.2528125 0.19984375 20.005625 0.3671875 20.78125 C1.02361458 23.08279681 1.72700895 24.97033595 3 27 C3.99 27.33 4.98 27.66 6 28 C6.33 28.99 6.66 29.98 7 31 C-2.18669459 29.03511598 -2.18669459 29.03511598 -5.0625 25.375 C-6.78726874 19.16583253 -7.98303889 13.96607777 -5 8 C-4.87625 7.13375 -4.7525 6.2675 -4.625 5.375 C-3.83308009 2.36570434 -2.59808742 1.59237616 0 0 Z " fill="#6B2E8F" transform="translate(351,124)"/>
<path d="M0 0 C3.16126808 2.31312299 5.20320964 4.75240982 7.5625 7.875 C7.2325 8.535 6.9025 9.195 6.5625 9.875 C6.21058594 9.39289063 5.85867188 8.91078125 5.49609375 8.4140625 C1.84763432 3.74632067 -0.59070409 1.92742326 -6.4375 0.875 C-6.1075 2.195 -5.7775 3.515 -5.4375 4.875 C-4.1175 4.875 -2.7975 4.875 -1.4375 4.875 C0.375 7.1875 0.375 7.1875 1.5625 9.875 C1.2325 10.865 0.9025 11.855 0.5625 12.875 C0.335625 12.09125 0.10875 11.3075 -0.125 10.5 C-1.20820943 7.74637358 -1.20820943 7.74637358 -3.625 6.5625 C-8.12153936 5.46334593 -12.0406317 5.40937723 -16.4375 6.875 C-15.4375 4.875 -14.4375 2.875 -13.4375 0.875 C-16.55947478 2.1839572 -16.55947478 2.1839572 -18.4375 4.875 C-19.76157669 5.55986725 -21.09659241 6.22370203 -22.4375 6.875 C-23.78863205 7.85081759 -25.12696944 8.84529741 -26.4375 9.875 C-25.12328373 5.93235118 -23.64836827 3.53543371 -20.4375 0.875 C-14.02977197 -2.21838595 -6.70396697 -2.19402555 0 0 Z " fill="#633281" transform="translate(703.4375,118.125)"/>
<path d="M0 0 C1.485 0.99 1.485 0.99 3 2 C3.66 2.33 4.32 2.66 5 3 C5.33 11.91 5.66 20.82 6 30 C4.68 30.33 3.36 30.66 2 31 C0.89740596 24.54194917 0.67425668 18.10241808 0.4375 11.5625 C0.39431641 10.44939453 0.35113281 9.33628906 0.30664062 8.18945312 C0.20120112 5.45974156 0.09907971 2.72994857 0 0 Z " fill="#6B2C91" transform="translate(588,121)"/>
<path d="M0 0 C0.99 0.33 1.98 0.66 3 1 C3 1.66 3 2.32 3 3 C3.66 3 4.32 3 5 3 C5.66 4.32 6.32 5.64 7 7 C7.99 7 8.98 7 10 7 C10.33 5.68 10.66 4.36 11 3 C10.34 2.67 9.68 2.34 9 2 C9.66 1.34 10.32 0.68 11 0 C11 0.66 11 1.32 11 2 C11.66 2 12.32 2 13 2 C13.02685938 4.14576637 13.04633088 6.29162645 13.0625 8.4375 C13.07410156 9.63246094 13.08570313 10.82742187 13.09765625 12.05859375 C13 15 13 15 12 16 C10.33382885 16.04063832 8.66611905 16.042721 7 16 C6.71125 15.21625 6.4225 14.4325 6.125 13.625 C5.15087746 10.90328368 5.15087746 10.90328368 3 9 C2.67 8.34 2.34 7.68 2 7 C1.01 6.34 0.02 5.68 -1 5 C-0.67 3.35 -0.34 1.7 0 0 Z " fill="#6B2D90" transform="translate(516,140)"/>
<path d="M0 0 C0.66 0.33 1.32 0.66 2 1 C2.38749213 3.32495277 2.71758117 5.6599583 3 8 C3.33 8.99 3.66 9.98 4 11 C5.82474317 11.61327489 5.82474317 11.61327489 8 12 C9.59586121 12.65789642 11.17936107 13.34647343 12.75 14.0625 C13.54921875 14.42472656 14.3484375 14.78695312 15.171875 15.16015625 C15.77515625 15.43730469 16.3784375 15.71445313 17 16 C15.70703125 17.50390625 15.70703125 17.50390625 14 19 C8.58754842 18.89787827 5.12554458 17.46920794 1 14 C-1.50662492 10.36135092 -2.04108435 8.62653634 -1.75 4.1875 C-1 1 -1 1 0 0 Z " fill="#6C2D92" transform="translate(257,111)"/>
<path d="M0 0 C0.99 0 1.98 0 3 0 C3.433125 1.2065625 3.433125 1.2065625 3.875 2.4375 C4.73262568 5.1326468 4.73262568 5.1326468 7 6 C8.60672661 8.37795538 9.85753449 10.37671338 10.5 13.1875 C10.89906646 15.40546281 10.89906646 15.40546281 14 17 C14.1875 20.125 14.1875 20.125 14 23 C9.62690874 21.6480426 7.76628713 19.93488784 5.1875 16.1875 C4.28064453 14.90939453 4.28064453 14.90939453 3.35546875 13.60546875 C1.8704277 10.7509374 1.89832426 9.1519479 2 6 C1.34 5.34 0.68 4.68 0 4 C0 2.68 0 1.36 0 0 Z " fill="#6A2E8D" transform="translate(500,117)"/>
<path d="M0 0 C0.33 0 0.66 0 1 0 C1.42348312 6.77572997 1.14786028 13.14012371 -3.3125 18.609375 C-4.48653519 19.7967515 -5.73702715 20.90769915 -7 22 C-7.99 21.01 -8.98 20.02 -10 19 C-10.99 19.33 -11.98 19.66 -13 20 C-15.15625 20.203125 -15.15625 20.203125 -17.5 20.25 C-18.2734375 20.27578125 -19.046875 20.3015625 -19.84375 20.328125 C-22.48830838 19.9256922 -23.33240802 19.03104151 -25 17 C-24.26394531 17.11859375 -23.52789062 17.2371875 -22.76953125 17.359375 C-16.69272463 18.23312978 -16.69272463 18.23312978 -10.9375 16.5625 C-8.32288198 13.10445681 -7.77957018 10.25220099 -7 6 C-6.67 6 -6.34 6 -6 6 C-5.67 8.64 -5.34 11.28 -5 14 C-3.79371992 11.66785852 -2.8345262 9.50357861 -2 7 C-1.34 7 -0.68 7 0 7 C0 4.69 0 2.38 0 0 Z " fill="#623081" transform="translate(335,133)"/>
<path d="M0 0 C1.32 0 2.64 0 4 0 C4 18.15 4 36.3 4 55 C-4 55 -4 55 -6.3125 52.8125 C-6.869375 51.884375 -7.42625 50.95625 -8 50 C-8.5775 49.071875 -9.155 48.14375 -9.75 47.1875 C-10.1625 46.465625 -10.575 45.74375 -11 45 C-9.515 44.505 -9.515 44.505 -8 44 C-4.55783328 46.6598561 -4.00495326 49.90288286 -3 54 C-0.525 53.505 -0.525 53.505 2 53 C2.05058332 45.7734678 2.08568412 38.54698101 2.10986328 31.3203125 C2.11993983 28.86033421 2.13360131 26.40036794 2.15087891 23.94042969 C2.17505461 20.41077715 2.1864664 16.88128253 2.1953125 13.3515625 C2.20563507 12.24632233 2.21595764 11.14108215 2.22659302 10.00234985 C2.22681961 8.47098892 2.22681961 8.47098892 2.22705078 6.90869141 C2.231492 6.00712311 2.23593323 5.10555481 2.24050903 4.17666626 C2.20631138 1.78953084 2.20631138 1.78953084 0 0 Z " fill="#633182" transform="translate(526,102)"/>
<path d="M0 0 C2.64 0 5.28 0 8 0 C8 12.21 8 24.42 8 37 C7.67 37 7.34 37 7 37 C6.97494385 36.08710205 6.9498877 35.1742041 6.92407227 34.23364258 C6.82868393 30.83232369 6.72946598 27.43116061 6.62768555 24.0300293 C6.58449295 22.56067232 6.54280744 21.0912702 6.50268555 19.62182617 C6.44460118 17.50425645 6.38101902 15.38691063 6.31640625 13.26953125 C6.27974854 11.99698486 6.24309082 10.72443848 6.20532227 9.41333008 C6.0299208 6.49741104 5.66607117 3.83732095 5 1 C4.01 1.33 3.02 1.66 2 2 C1.67 14.21 1.34 26.42 1 39 C0.67 39 0.34 39 0 39 C0 26.13 0 13.26 0 0 Z " fill="#573371" transform="translate(383,118)"/>
<path d="M0 0 C3 0.25 3 0.25 5 2.25 C5.25 4.75 5.25 4.75 5 7.25 C3 9.25 3 9.25 0 9.5 C-3 9.25 -3 9.25 -5 7.25 C-5.25 4.75 -5.25 4.75 -5 2.25 C-3 0.25 -3 0.25 0 0 Z " fill="#6A2F8D" transform="translate(387,99.75)"/>
<path d="M0 0 C0.66 1.65 1.32 3.3 2 5 C0 7 0 7 -3.4765625 7.1953125 C-4.85950968 7.18201493 -6.24238654 7.15816232 -7.625 7.125 C-8.33140625 7.11597656 -9.0378125 7.10695312 -9.765625 7.09765625 C-11.51056098 7.07407603 -13.25532295 7.03820461 -15 7 C-15 6.34 -15 5.68 -15 5 C-15.66 4.67 -16.32 4.34 -17 4 C-12.59085217 2.89771304 -8.51617599 2.92345464 -4 3 C-4 2.34 -4 1.68 -4 1 C-2 0 -2 0 0 0 Z " fill="#632F83" transform="translate(573,150)"/>
<path d="M0 0 C1.32 0.33 2.64 0.66 4 1 C3.67 2.98 3.34 4.96 3 7 C1.7625 6.7525 1.7625 6.7525 0.5 6.5 C-4.54954472 5.77863647 -9.06572487 5.15901081 -13.875 7.25 C-16.92674947 9.76320544 -17.83599728 11.89220805 -18.4140625 15.796875 C-18.51847656 17.25867188 -18.51847656 17.25867188 -18.625 18.75 C-18.69976562 19.73484375 -18.77453125 20.7196875 -18.8515625 21.734375 C-18.90054687 22.48203125 -18.94953125 23.2296875 -19 24 C-19.12375 23.360625 -19.2475 22.72125 -19.375 22.0625 C-19.58125 21.381875 -19.7875 20.70125 -20 20 C-20.66 19.67 -21.32 19.34 -22 19 C-21.60217121 17.22483971 -21.18096339 15.45490837 -20.75 13.6875 C-20.51796875 12.70136719 -20.2859375 11.71523437 -20.046875 10.69921875 C-18.84598949 7.60290575 -17.83678546 6.64768178 -15 5 C-11.71480525 3.90493508 -9.26336585 3.90039392 -5.8125 3.9375 C-4.18248047 3.95103516 -4.18248047 3.95103516 -2.51953125 3.96484375 C-1.68808594 3.97644531 -0.85664063 3.98804687 0 4 C0 2.68 0 1.36 0 0 Z " fill="#5E357B" transform="translate(370,118)"/>
<path d="M0 0 C1.8871875 0.0309375 1.8871875 0.0309375 3.8125 0.0625 C3.93625 0.701875 4.06 1.34125 4.1875 2 C4.39375 2.680625 4.6 3.36125 4.8125 4.0625 C5.4725 4.3925 6.1325 4.7225 6.8125 5.0625 C2.94974657 6.35008448 -0.45576544 6.08795273 -4.49609375 6 C-6.92075944 6.05630573 -8.8780181 6.36364969 -11.1875 7.0625 C-11.5175 5.7425 -11.8475 4.4225 -12.1875 3.0625 C-10.8675 3.0625 -9.5475 3.0625 -8.1875 3.0625 C-7.8575 2.4025 -7.5275 1.7425 -7.1875 1.0625 C-4.43671116 0.14557039 -2.82801087 -0.04636083 0 0 Z " fill="#653184" transform="translate(365.1875,116.9375)"/>
<path d="M0 0 C0.33 0 0.66 0 1 0 C1.33 16.17 1.66 32.34 2 49 C2.66 49.33 3.32 49.66 4 50 C4.625 52.0625 4.625 52.0625 5 54 C1.125 53.125 1.125 53.125 0 52 C-0.09340434 50.37325222 -0.11745171 48.74245949 -0.11352539 47.11303711 C-0.11344986 46.07203354 -0.11337433 45.03102997 -0.11329651 43.95848083 C-0.10813522 42.8262056 -0.10297394 41.69393036 -0.09765625 40.52734375 C-0.0962413 39.37456436 -0.09482635 38.22178497 -0.09336853 37.03407288 C-0.08775005 33.33518936 -0.07519442 29.63636536 -0.0625 25.9375 C-0.05748738 23.43684983 -0.05292406 20.93619871 -0.04882812 18.43554688 C-0.03777462 12.29034412 -0.02101852 6.14517631 0 0 Z " fill="#643280" transform="translate(444,101)"/>
<path d="M0 0 C0.33 0.99 0.66 1.98 1 3 C2.3153341 3.70151152 3.65117592 4.36525925 5 5 C6 6 7 7 8 8 C8.99 8.33 9.98 8.66 11 9 C10.01 10.98 9.02 12.96 8 15 C6.68 15 5.36 15 4 15 C3.32532438 13.25307205 2.66055844 11.50231475 2 9.75 C1.62875 8.77546875 1.2575 7.8009375 0.875 6.796875 C0 4 0 4 0 0 Z " fill="#6A2E91" transform="translate(619,141)"/>
<path d="M0 0 C10.21387376 3.69437987 17.82163291 10.41385615 23 20 C23.6875 22.8046875 23.6875 22.8046875 24 25 C20.46413986 21.82679218 18.41421969 19.83256305 18 15 C17.34 15 16.68 15 16 15 C15.34 14.01 14.68 13.02 14 12 C13.34 11.67 12.68 11.34 12 11 C12 10.01 12 9.02 12 8 C11.319375 7.7525 10.63875 7.505 9.9375 7.25 C6.43134917 5.75802092 3.28379632 3.93164489 0 2 C0 1.34 0 0.68 0 0 Z " fill="#713D8C" transform="translate(192,47)"/>
<path d="M0 0 C2.52047733 1.41344415 3.98182867 2.87560912 6 5 C5.67 5.66 5.34 6.32 5 7 C3.68 6.34 2.36 5.68 1 5 C1 4.01 1 3.02 1 2 C-3.93712591 1.39545397 -7.90040173 1.33591742 -12.0625 4.3125 C-14.36305846 6.51234277 -14.94976393 7.66707184 -15.4296875 10.84765625 C-15.43679345 13.60121353 -15.30661592 16.26479135 -15 19 C-17.45993942 16.54006058 -17.34992473 15.64998115 -17.4375 12.25 C-17.37818703 8.52406692 -17.013235 6.33297075 -14.625 3.4375 C-10.14889168 -0.71888629 -5.94411999 -0.85435364 0 0 Z " fill="#6B388A" transform="translate(131,93)"/>
<path d="M0 0 C1.17747733 3.62163482 1.00572441 6.84880295 0.75 10.625 C0.68296875 11.77226562 0.6159375 12.91953125 0.546875 14.1015625 C0.36640625 15.05804688 0.1859375 16.01453125 0 17 C-3.22143276 19.14762184 -4.2595467 19.561068 -8 19 C-10.36321142 16.65362857 -10.96809539 15.32840478 -11.29296875 11.984375 C-11.25816406 10.91703125 -11.22335938 9.8496875 -11.1875 8.75 C-11.14689453 7.13351563 -11.14689453 7.13351563 -11.10546875 5.484375 C-11.07066406 4.66453125 -11.03585938 3.8446875 -11 3 C-10.34 3 -9.68 3 -9 3 C-8.67 2.34 -8.34 1.68 -8 1 C-8 6.28 -8 11.56 -8 17 C-3.36980013 16.5547002 -3.36980013 16.5547002 -2 15 C-1.79016721 12.85795689 -1.63176615 10.71075887 -1.5 8.5625 C-1.11013767 2.22027534 -1.11013767 2.22027534 0 0 Z " fill="#6E368E" transform="translate(103,147)"/>
<path d="M0 0 C0 1.32 0 2.64 0 4 C-3.63 5.32 -7.26 6.64 -11 8 C-11.66 7.34 -12.32 6.68 -13 6 C-12.625 3.375 -12.625 3.375 -12 1 C-11.071875 1.20625 -10.14375 1.4125 -9.1875 1.625 C-5.13523885 2.10173661 -3.99345914 0 0 0 Z " fill="#893BB3" transform="translate(205,192)"/>
<path d="M0 0 C-1.1446875 0.804375 -1.1446875 0.804375 -2.3125 1.625 C-7.87790183 6.54326208 -8.40523201 11.72400022 -8.88671875 18.8046875 C-8.94279297 19.89136719 -8.94279297 19.89136719 -9 21 C-9.66 20.67 -10.32 20.34 -11 20 C-12.07851442 15.09766174 -12.19752434 10.8822146 -11 6 C-9 3.6875 -9 3.6875 -7 2 C-6.67 1.34 -6.34 0.68 -6 0 C-3 -1 -3 -1 0 0 Z " fill="#632E7F" transform="translate(116,89)"/>
<path d="M0 0 C0.99 0 1.98 0 3 0 C1.37740018 3.73119571 -0.41696265 5.47598799 -4.171875 7.2421875 C-8.06842947 8.28629188 -11.79302302 8.36654239 -15.8125 8.375 C-16.5660376 8.37661133 -17.3195752 8.37822266 -18.09594727 8.37988281 C-21.8952684 8.3030685 -23.77325816 8.15116123 -27 6 C-25.72382813 6.02320313 -24.44765625 6.04640625 -23.1328125 6.0703125 C-21.4635475 6.08906829 -19.7942762 6.10726869 -18.125 6.125 C-16.86236328 6.15013672 -16.86236328 6.15013672 -15.57421875 6.17578125 C-14.76855469 6.18222656 -13.96289062 6.18867188 -13.1328125 6.1953125 C-12.38918457 6.20578613 -11.64555664 6.21625977 -10.87939453 6.22705078 C-8.75509765 6.1665597 -8.75509765 6.1665597 -7 4 C-4.875 4.375 -4.875 4.375 -3 5 C-2.690625 4.360625 -2.38125 3.72125 -2.0625 3.0625 C-1 1 -1 1 0 0 Z " fill="#5E327E" transform="translate(286,150)"/>
<path d="M0 0 C1.134375 0.020625 2.26875 0.04125 3.4375 0.0625 C3.4375 3.3625 3.4375 6.6625 3.4375 10.0625 C3.1075 10.0625 2.7775 10.0625 2.4375 10.0625 C2.1075 7.7525 1.7775 5.4425 1.4375 3.0625 C-0.2125 2.7325 -1.8625 2.4025 -3.5625 2.0625 C-3.5625 5.6925 -3.5625 9.3225 -3.5625 13.0625 C-5.2125 13.0625 -6.8625 13.0625 -8.5625 13.0625 C-8.21463292 15.03786745 -8.21463292 15.03786745 -7.5625 17.0625 C-6.9025 17.3925 -6.2425 17.7225 -5.5625 18.0625 C-6.8825 18.0625 -8.2025 18.0625 -9.5625 18.0625 C-9.5625 16.0825 -9.5625 14.1025 -9.5625 12.0625 C-7.9125 12.0625 -6.2625 12.0625 -4.5625 12.0625 C-4.57410156 11.28003906 -4.58570313 10.49757813 -4.59765625 9.69140625 C-4.60667969 8.67949219 -4.61570312 7.66757813 -4.625 6.625 C-4.63660156 5.61566406 -4.64820313 4.60632813 -4.66015625 3.56640625 C-4.50618986 -0.38129207 -4.09874205 0.07190776 0 0 Z " fill="#573170" transform="translate(591.5625,105.9375)"/>
<path d="M0 0 C2.35171131 0.59861742 4.6859378 1.26924352 7 2 C7.33 2.66 7.66 3.32 8 4 C10.52733235 4.65555119 10.52733235 4.65555119 13 5 C13 5.33 13 5.66 13 6 C9.37 6.66 5.74 7.32 2 8 C0 4 0 4 0 0 Z " fill="#743197" transform="translate(112,80)"/>
<path d="M0 0 C0.33 0 0.66 0 1 0 C1.48605245 7.77683927 0.68554821 13.74907322 -4.375 19.875 C-6.89145489 21.91213015 -8.92942684 23.03496272 -12 24 C-12 23.34 -12 22.68 -12 22 C-7.52941176 18 -7.52941176 18 -5 18 C-4.566875 16.9171875 -4.566875 16.9171875 -4.125 15.8125 C-3.43516376 14.08790939 -2.71298191 12.37531356 -1.9375 10.6875 C-0.69520131 7.12624377 -0.38147588 3.75117948 0 0 Z " fill="#5C3778" transform="translate(712,133)"/>
<path d="M0 0 C1.921875 0.33984375 1.921875 0.33984375 4 1 C5.25 3.5625 5.25 3.5625 6 6 C6.66 6 7.32 6 8 6 C10.68159945 12.20119872 11.14288655 19.57134036 9 26 C8.34 26 7.68 26 7 26 C7.10699219 25.38253906 7.21398437 24.76507813 7.32421875 24.12890625 C8.50219323 15.80708654 7.16548096 9.82292597 2.3125 2.9375 C1.549375 1.968125 0.78625 0.99875 0 0 Z " fill="#713D90" transform="translate(161,88)"/>
<path d="M0 0 C3.96 0 7.92 0 12 0 C12.33 0.66 12.66 1.32 13 2 C12.01 2 11.02 2 10 2 C10 2.66 10 3.32 10 4 C6.37 4 2.74 4 -1 4 C-0.67 2.68 -0.34 1.36 0 0 Z " fill="#6C2D8F" transform="translate(690,153)"/>
<path d="M0 0 C5.81435334 0.28362699 9.19901923 2.81696188 13 7 C14.90409545 10.08488191 15 11.16819636 15 15 C14.01 14.67 13.02 14.34 12 14 C11.29373761 12.01363702 10.63106429 10.01151741 10 8 C7.74422297 3.93960135 5.33585222 3.3196072 1 2 C0.67 1.34 0.34 0.68 0 0 Z " fill="#5F347D" transform="translate(320,117)"/>
<path d="M0 0 C1.23556641 0.01740234 1.23556641 0.01740234 2.49609375 0.03515625 C3.32238281 0.04417969 4.14867187 0.05320312 5 0.0625 C5.63808594 0.07410156 6.27617188 0.08570312 6.93359375 0.09765625 C6.00085266 1.22660501 5.06219253 2.35066501 4.12109375 3.47265625 C3.59902344 4.09914063 3.07695313 4.725625 2.5390625 5.37109375 C0.93359375 7.09765625 0.93359375 7.09765625 -2.06640625 9.09765625 C-0.81663869 5.44448954 -0.39541872 4.31699789 2.93359375 2.09765625 C1.28359375 2.42765625 -0.36640625 2.75765625 -2.06640625 3.09765625 C-2.39640625 4.08765625 -2.72640625 5.07765625 -3.06640625 6.09765625 C-6.12890625 7.28515625 -6.12890625 7.28515625 -9.06640625 8.09765625 C-8.08774287 6.95139303 -7.10846038 5.80565837 -6.12890625 4.66015625 C-5.58363281 4.02207031 -5.03835938 3.38398437 -4.4765625 2.7265625 C-2.20642743 0.10427351 -2.20642743 0.10427351 0 0 Z " fill="#5B2F79" transform="translate(778.06640625,117.90234375)"/>
<path d="M0 0 C1.15822266 -0.01836914 1.15822266 -0.01836914 2.33984375 -0.03710938 C6.2482648 -0.04726991 8.17641928 -0.02822048 11.5 2.1875 C10.62859375 2.16429688 9.7571875 2.14109375 8.859375 2.1171875 C0.83559895 1.99561514 -6.63943373 2.57507615 -14.5 4.1875 C-14.83 5.1775 -15.16 6.1675 -15.5 7.1875 C-16.16 6.5275 -16.82 5.8675 -17.5 5.1875 C-11.37997384 0.97148198 -7.33632222 0.00612381 0 0 Z " fill="#5F347F" transform="translate(274.5,99.8125)"/>
<path d="M0 0 C0.99 0.33 1.98 0.66 3 1 C2.34 1.66 1.68 2.32 1 3 C0.62731113 5.91188245 0.62731113 5.91188245 0.5859375 9.3203125 C0.54726563 10.57714844 0.50859375 11.83398438 0.46875 13.12890625 C0.42234375 15.10697266 0.42234375 15.10697266 0.375 17.125 C0.33681971 18.46486918 0.29776794 19.80471383 0.2578125 21.14453125 C0.1632797 24.42954619 0.07772844 27.71455138 0 31 C-2.31 31 -4.62 31 -7 31 C-7 30.67 -7 30.34 -7 30 C-5.02 30 -3.04 30 -1 30 C-1.00523682 29.12674072 -1.01047363 28.25348145 -1.01586914 27.35375977 C-1.03287751 24.12410727 -1.04543369 20.89447755 -1.05493164 17.66479492 C-1.0599708 16.26504772 -1.06680216 14.8653058 -1.07543945 13.46557617 C-1.0875232 11.45754223 -1.09269807 9.44947043 -1.09765625 7.44140625 C-1.10289307 6.23170166 -1.10812988 5.02199707 -1.11352539 3.77563477 C-1 1 -1 1 0 0 Z " fill="#64397E" transform="translate(730,126)"/>
<path d="M0 0 C0.99 0 1.98 0 3 0 C3.268125 0.639375 3.53625 1.27875 3.8125 1.9375 C4.88667752 4.33131686 4.88667752 4.33131686 8 5 C8.6875 7.0625 8.6875 7.0625 9 9 C6.1875 9.3125 6.1875 9.3125 3 9 C0.29638531 5.75566237 0 4.29107948 0 0 Z " fill="#6C2E95" transform="translate(303,146)"/>
<path d="M0 0 C-1.32 0.99 -2.64 1.98 -4 3 C-2.94039063 2.97679688 -1.88078125 2.95359375 -0.7890625 2.9296875 C0.5989513 2.91093056 1.9869727 2.89273028 3.375 2.875 C4.42300781 2.84986328 4.42300781 2.84986328 5.4921875 2.82421875 C7.32897486 2.80655733 9.16601963 2.89696739 11 3 C11.66 3.66 12.32 4.32 13 5 C11.700625 4.95875 10.40125 4.9175 9.0625 4.875 C4.16408698 4.85944948 -0.28176811 5.7507282 -5 7 C-5.66 5.02 -6.32 3.04 -7 1 C-3.375 -1.125 -3.375 -1.125 0 0 Z " fill="#5E337A" transform="translate(408,119)"/>
<path d="M0 0 C3.63 0 7.26 0 11 0 C10.67 1.32 10.34 2.64 10 4 C3.375 4.125 3.375 4.125 0 3 C0 2.01 0 1.02 0 0 Z " fill="#6B2D8D" transform="translate(594,152)"/>
<path d="M0 0 C0.99 0 1.98 0 3 0 C2 2 1 4 0 6 C-0.99 6.33 -1.98 6.66 -3 7 C-4.37195574 8.29355827 -5.71182656 9.62298702 -7 11 C-7.36923077 6.44615385 -7.36923077 6.44615385 -5.5 4.1875 C-5.005 3.795625 -4.51 3.40375 -4 3 C-3.34 3.33 -2.68 3.66 -2 4 C-1.34 2.68 -0.68 1.36 0 0 Z " fill="#6B2E93" transform="translate(687,119)"/>
<path d="M0 0 C1.32 0.33 2.64 0.66 4 1 C3.34 2.98 2.68 4.96 2 7 C-3.28 6.01 -8.56 5.02 -14 4 C-14 3.67 -14 3.34 -14 3 C-9.38 3 -4.76 3 0 3 C0 2.01 0 1.02 0 0 Z " fill="#5F3379" transform="translate(286,102)"/>
<path d="M0 0 C3 0.25 3 0.25 5 2.25 C5.25 4.75 5.25 4.75 5 7.25 C3 9.25 3 9.25 0 9.5 C-3 9.25 -3 9.25 -5 7.25 C-5.25 4.75 -5.25 4.75 -5 2.25 C-3 0.25 -3 0.25 0 0 Z M-2 1.25 C-2.66 1.91 -3.32 2.57 -4 3.25 C-3.67958603 5.85280568 -3.67958603 5.85280568 -3 8.25 C-1.35 8.25 0.3 8.25 2 8.25 C2 7.59 2 6.93 2 6.25 C2.66 5.92 3.32 5.59 4 5.25 C2.70532323 3.19009522 2.70532323 3.19009522 1 1.25 C0.01 1.25 -0.98 1.25 -2 1.25 Z " fill="#5D357A" transform="translate(387,99.75)"/>
<path d="M0 0 C0.33 0.99 0.66 1.98 1 3 C1.99 3.33 2.98 3.66 4 4 C4.103125 4.94875 4.20625 5.8975 4.3125 6.875 C4.68539295 10.29107501 4.68539295 10.29107501 8 12 C8.99 12.33 9.98 12.66 11 13 C11.33 12.01 11.66 11.02 12 10 C12.33 10.66 12.66 11.32 13 12 C12.67 12.66 12.34 13.32 12 14 C9.36 14 6.72 14 4 14 C3.32471777 12.42032193 2.66010306 10.83608097 2 9.25 C1.62875 8.36828125 1.2575 7.4865625 0.875 6.578125 C0 4 0 4 0 0 Z " fill="#5B3277" transform="translate(646,143)"/>
<path d="M0 0 C3.875 3.75 3.875 3.75 5 6 C5.99 6.66 6.98 7.32 8 8 C5.36 8.33 2.72 8.66 0 9 C0 8.01 0 7.02 0 6 C-0.66 6 -1.32 6 -2 6 C-1.33333333 4 -0.66666667 2 0 0 Z " fill="#833AAB" transform="translate(171,159)"/>
<path d="M0 0 C0.66 0 1.32 0 2 0 C2.33 1.98 2.66 3.96 3 6 C-1.21896866 8.04898287 -4.65372146 8.21207997 -9.3125 8.125 C-10.56675781 8.10695312 -11.82101562 8.08890625 -13.11328125 8.0703125 C-14.06589844 8.04710937 -15.01851563 8.02390625 -16 8 C-16 7.67 -16 7.34 -16 7 C-15.35933594 6.95101562 -14.71867187 6.90203125 -14.05859375 6.8515625 C-8.78803915 6.3959855 -4.03013712 5.6402621 1 4 C0.67 2.68 0.34 1.36 0 0 Z " fill="#5D3378" transform="translate(371,150)"/>
<path d="M0 0 C0.33 0 0.66 0 1 0 C1 1.98 1 3.96 1 6 C1.66 6 2.32 6 3 6 C3.94324258 10.31196609 4.48041715 14.62065881 5 19 C2.38906455 17.69453228 2.31003364 16.72009785 1.375 14 C-0.1632708 9.1842075 -0.23943895 5.02821785 0 0 Z " fill="#6F398F" transform="translate(58,165)"/>
<path d="M0 0 C1.10844919 3.32534757 0.84454356 5.62182575 0 9 C0.66 9 1.32 9 2 9 C1.67 9.66 1.34 10.32 1 11 C0.71125 11.680625 0.4225 12.36125 0.125 13.0625 C-1 15 -1 15 -4 16 C-2.98408579 10.53135543 -1.92908943 5.23609987 0 0 Z " fill="#5C317A" transform="translate(659,130)"/>
<path d="M0 0 C0.99 0.33 1.98 0.66 3 1 C3 2.32 3 3.64 3 5 C-0.63 5.33 -4.26 5.66 -8 6 C-6.25 4 -6.25 4 -4 2 C-2.68 2 -1.36 2 0 2 C0 1.34 0 0.68 0 0 Z " fill="#6C2D92" transform="translate(741,118)"/>
<path d="M0 0 C0.33 1.32 0.66 2.64 1 4 C1.763125 4.0825 2.52625 4.165 3.3125 4.25 C6.52373261 5.14615794 7.29374499 6.21611025 9 9 C8.67 9.66 8.34 10.32 8 11 C7.175 10.21625 6.35 9.4325 5.5 8.625 C1.90420533 5.58836 -1.42279594 4.86809043 -6 4 C-5.38125 3.71125 -4.7625 3.4225 -4.125 3.125 C-1.86674235 2.06279958 -1.86674235 2.06279958 0 0 Z " fill="#6A378C" transform="translate(133,82)"/>
<path d="M0 0 C0.66 0.33 1.32 0.66 2 1 C2 1.66 2 2.32 2 3 C-1.3 3.33 -4.6 3.66 -8 4 C-8 3.01 -8 2.02 -8 1 C-5.26094655 -0.36952673 -3.02912668 -0.12621361 0 0 Z " fill="#6A2E93" transform="translate(412,119)"/>
<path d="M0 0 C0.66 0.66 1.32 1.32 2 2 C1.67 2.66 1.34 3.32 1 4 C1.99 4.33 2.98 4.66 4 5 C4 5.66 4 6.32 4 7 C3.34 7 2.68 7 2 7 C1.34 8.32 0.68 9.64 0 11 C-0.33 11 -0.66 11 -1 11 C-1.02688151 9.35425434 -1.04634123 7.70838587 -1.0625 6.0625 C-1.07410156 5.14597656 -1.08570313 4.22945313 -1.09765625 3.28515625 C-1 1 -1 1 0 0 Z " fill="#6F2E94" transform="translate(60,77)"/>
<path d="M0 0 C0.84290621 2.36013739 1.13867449 3.59658332 0.3125 6 C-1.20988656 8.31982713 -2.97571423 10.11066661 -5 12 C-5.66 11.67 -6.32 11.34 -7 11 C-4.84921278 7.14341602 -2.76544722 3.45680903 0 0 Z " fill="#8440AD" transform="translate(215,176)"/>
<path d="M0 0 C1.65 0.33 3.3 0.66 5 1 C5.33 1.99 5.66 2.98 6 4 C5.01 4.99 4.02 5.98 3 7 C1.68 6.34 0.36 5.68 -1 5 C-0.67 3.35 -0.34 1.7 0 0 Z " fill="#6B2D91" transform="translate(767,139)"/>
<path d="M0 0 C0.33 0.99 0.66 1.98 1 3 C0.67 3.66 0.34 4.32 0 5 C0.99 5.33 1.98 5.66 3 6 C1.02 8.97 1.02 8.97 -1 12 C-2.32 11.67 -3.64 11.34 -5 11 C-4.319375 9.948125 -4.319375 9.948125 -3.625 8.875 C-1.98313057 5.97015409 -0.96322901 3.1860652 0 0 Z " fill="#622F80" transform="translate(706,138)"/>
<path d="M0 0 C1.65 0 3.3 0 5 0 C4.30058404 3.14737182 3.23921302 6.02588876 2 9 C1.34 8.67 0.68 8.34 0 8 C0 5.36 0 2.72 0 0 Z " fill="#692D91" transform="translate(664,119)"/>
<path d="M0 0 C-0.33 0.66 -0.66 1.32 -1 2 C-1.99 2 -2.98 2 -4 2 C-4 2.99 -4 3.98 -4 5 C-6.86724686 4.42655063 -7.8614515 4.1385485 -10 2 C-6.3558226 -0.4294516 -4.28758728 -0.16179575 0 0 Z " fill="#873AB3" transform="translate(184,200)"/>
<path d="M0 0 C-1 3 -1 3 -2 4 C-3.99958364 4.04080783 -6.00045254 4.04254356 -8 4 C-8 3.34 -8 2.68 -8 2 C-8.66 1.67 -9.32 1.34 -10 1 C-6.78548731 -0.60725635 -3.56387464 -0.05748185 0 0 Z " fill="#6C2E92" transform="translate(566,153)"/>
<path d="M0 0 C3.81538462 2.46153846 3.81538462 2.46153846 4.75 5.1875 C4.8325 5.785625 4.915 6.38375 5 7 C4.01 7.495 4.01 7.495 3 8 C1.68 7.01 0.36 6.02 -1 5 C-0.67 3.35 -0.34 1.7 0 0 Z " fill="#6D2D91" transform="translate(772,144)"/>
<path d="M0 0 C1.49278322 3.88123638 0.30030822 6.17131468 -1 10 C-1.45032709 12.99075923 -1.74554861 15.98675988 -2 19 C-2.33 19 -2.66 19 -3 19 C-3.31461385 11.90370975 -3.44572039 6.31715405 0 0 Z " fill="#62367C" transform="translate(301,125)"/>
<path d="M0 0 C0.66 0.66 1.32 1.32 2 2 C1.625 4.125 1.625 4.125 1 6 C1.66 6.33 2.32 6.66 3 7 C2.67 8.32 2.34 9.64 2 11 C2.66 11.33 3.32 11.66 4 12 C3.67 12.99 3.34 13.98 3 15 C2.34 14.67 1.68 14.34 1 14 C0.40234375 12.0390625 0.40234375 12.0390625 -0.0625 9.625 C-0.58410686 6.97816849 -1.14392083 4.5682375 -2 2 C-1.34 2 -0.68 2 0 2 C0 1.34 0 0.68 0 0 Z " fill="#6B378A" transform="translate(144,91)"/>
<path d="M0 0 C1.32 0.33 2.64 0.66 4 1 C3.34 2.98 2.68 4.96 2 7 C-0.97 7 -3.94 7 -7 7 C-3.77208445 4.8480563 -2.71599191 4.79913557 1 5 C0.67 3.35 0.34 1.7 0 0 Z " fill="#61397E" transform="translate(743,118)"/>
<path d="M0 0 C2.64 0 5.28 0 8 0 C8 1.98 8 3.96 8 6 C4.7 6 1.4 6 -2 6 C-2 5.67 -2 5.34 -2 5 C0.64 4.67 3.28 4.34 6 4 C6 3.34 6 2.68 6 2 C3.03 1.505 3.03 1.505 0 1 C0 0.67 0 0.34 0 0 Z " fill="#5E327D" transform="translate(597,118)"/>
<path d="M0 0 C-3.06890187 1.53445094 -5.70094266 0.54984289 -9 0 C-9.33 1.65 -9.66 3.3 -10 5 C-10.66 5 -11.32 5 -12 5 C-12.33 3.02 -12.66 1.04 -13 -1 C-8.04792435 -3.94029492 -4.83544302 -2.23174293 0 0 Z " fill="#713990" transform="translate(161,87)"/>
<path d="M0 0 C3.96 0.99 3.96 0.99 8 2 C5.98615798 4.01384202 4.66975522 5.05773345 2 6 C-0.25 5.125 -0.25 5.125 -2 4 C-1.34 2.68 -0.68 1.36 0 0 Z " fill="#6C2F92" transform="translate(275,127)"/>
<path d="M0 0 C-0.33 0.99 -0.66 1.98 -1 3 C-4.5625 4.1875 -4.5625 4.1875 -8 5 C-8.33 3.68 -8.66 2.36 -9 1 C-5.846632 0.29925156 -3.27275026 0 0 0 Z " fill="#6D2D92" transform="translate(362,119)"/>
<path d="M0 0 C1 2 1 2 0.22265625 4.8203125 C-0.16019531 5.91085938 -0.54304687 7.00140625 -0.9375 8.125 C-1.31777344 9.22070312 -1.69804688 10.31640625 -2.08984375 11.4453125 C-2.39019531 12.28835937 -2.69054687 13.13140625 -3 14 C-3.66 13.67 -4.32 13.34 -5 13 C-4.54996653 7.37458159 -3.31558515 4.38512875 0 0 Z " fill="#5E2F7C" transform="translate(663,138)"/>
<path d="M0 0 C2.912575 0.08566397 4.56798024 0.57910955 6.66796875 2.625 C8.16091772 4.38391375 9.60436262 6.16313019 11 8 C10.67 8.66 10.34 9.32 10 10 C9.61328125 9.50628906 9.2265625 9.01257813 8.828125 8.50390625 C8.30734375 7.86324219 7.7865625 7.22257812 7.25 6.5625 C6.73953125 5.92441406 6.2290625 5.28632812 5.703125 4.62890625 C3.80332371 2.81189446 2.56413092 2.39576803 0 2 C0 1.34 0 0.68 0 0 Z " fill="#5E377A" transform="translate(700,118)"/>
<path d="M0 0 C-1.1446875 0.804375 -1.1446875 0.804375 -2.3125 1.625 C-5.22864474 4.20205814 -6.4705622 6.45814404 -8 10 C-8.33 10 -8.66 10 -9 10 C-9.36444983 5.74808535 -8.56111503 3.41482003 -6 0 C-3 -1 -3 -1 0 0 Z " fill="#673882" transform="translate(116,89)"/>
<path d="M0 0 C-0.33 1.32 -0.66 2.64 -1 4 C-2.65 4.33 -4.3 4.66 -6 5 C-6.33 4.01 -6.66 3.02 -7 2 C-4 0 -4 0 0 0 Z " fill="#6D2C91" transform="translate(411,137)"/>
<path d="M0 0 C2.68433048 2.45091043 3.91789741 4.28241384 4.09765625 8.04296875 C4.06510417 10.02864583 4.03255208 12.01432292 4 14 C3.67 14 3.34 14 3 14 C3 12.02 3 10.04 3 8 C2.34 7.67 1.68 7.34 1 7 C0.59270772 4.67843403 0.25561323 2.3431213 0 0 Z " fill="#62307E" transform="translate(288,132)"/>
<path d="M0 0 C1.66666667 3.33333333 3.33333333 6.66666667 5 10 C4.01 10.33 3.02 10.66 2 11 C2 10.34 2 9.68 2 9 C1.34 8.67 0.68 8.34 0 8 C-0.6875 4.5 -0.6875 4.5 -1 1 C-0.67 0.67 -0.34 0.34 0 0 Z " fill="#623080" transform="translate(305,140)"/>
<path d="M0 0 C0.66 0.33 1.32 0.66 2 1 C1.34 3.64 0.68 6.28 0 9 C-0.33 8.34 -0.66 7.68 -1 7 C-1.66 7 -2.32 7 -3 7 C-2.38722388 4.03824877 -1.74627478 2.61941217 0 0 Z " fill="#6D2D91" transform="translate(662,132)"/>
<path d="M0 0 C2 1 2 1 4 3 C3.625 5.625 3.625 5.625 3 8 C1 7 1 7 -0.125 3.9375 C-0.41375 2.968125 -0.7025 1.99875 -1 1 C-0.67 0.67 -0.34 0.34 0 0 Z " fill="#8437AD" transform="translate(146,160)"/>
<path d="M0 0 C0.33 0.66 0.66 1.32 1 2 C1.763125 1.79375 2.52625 1.5875 3.3125 1.375 C6 1 6 1 9 3 C8.67 3.66 8.34 4.32 8 5 C6.88625 4.79375 5.7725 4.5875 4.625 4.375 C3.42875 4.25125 2.2325 4.1275 1 4 C0.34 4.66 -0.32 5.32 -1 6 C-1.33 4.68 -1.66 3.36 -2 2 C-1.34 2 -0.68 2 0 2 C0 1.34 0 0.68 0 0 Z " fill="#773C9A" transform="translate(163,131)"/>
<path d="M0 0 C2.97 0 5.94 0 9 0 C9.66 2.97 10.32 5.94 11 9 C10.01 8.67 9.02 8.34 8 8 C8 5.69 8 3.38 8 1 C5.36 1 2.72 1 0 1 C0 0.67 0 0.34 0 0 Z " fill="#5D337C" transform="translate(609,118)"/>
<path d="M0 0 C0.61875 0.28875 1.2375 0.5775 1.875 0.875 C6.15866124 2.41711805 10.52928212 3.18398547 15 4 C15 4.33 15 4.66 15 5 C6.22421525 5.76681614 6.22421525 5.76681614 3.22265625 3.88671875 C1.875 2.5 1.875 2.5 0 0 Z " fill="#693C84" transform="translate(116,112)"/>
<path d="M0 0 C1.2065625 0.0309375 1.2065625 0.0309375 2.4375 0.0625 C0.7875 2.0425 -0.8625 4.0225 -2.5625 6.0625 C-3.2225 5.7325 -3.8825 5.4025 -4.5625 5.0625 C-3.43829114 0.08386076 -3.43829114 0.08386076 0 0 Z " fill="#6C2D94" transform="translate(779.5625,118.9375)"/>
<path d="M0 0 C1.21236328 0.02707031 1.21236328 0.02707031 2.44921875 0.0546875 C3.37154297 0.08949219 3.37154297 0.08949219 4.3125 0.125 C4.3125 0.455 4.3125 0.785 4.3125 1.125 C3.075 1.41375 1.8375 1.7025 0.5625 2 C-2.41198742 2.73834794 -5.021356 3.56974933 -7.6875 5.125 C-7.6875 4.135 -7.6875 3.145 -7.6875 2.125 C-4.48369983 -0.01086678 -3.66810033 -0.10632175 0 0 Z " fill="#6D3A8E" transform="translate(108.6875,132.875)"/>
<path d="M0 0 C0 0.66 0 1.32 0 2 C-3.3 2.66 -6.6 3.32 -10 4 C-7.16124653 -0.25813021 -4.8137938 -0.13010254 0 0 Z " fill="#61337B" transform="translate(741,118)"/>
<path d="M0 0 C3.63 0.33 7.26 0.66 11 1 C11 1.33 11 1.66 11 2 C8.03 2.66 5.06 3.32 2 4 C2 3.34 2 2.68 2 2 C1.34 2 0.68 2 0 2 C0 1.34 0 0.68 0 0 Z " fill="#6C3891" transform="translate(114,84)"/>
<path d="M0 0 C3 1 3 1 4.75 3.9375 C5.1625 4.948125 5.575 5.95875 6 7 C5.67 7.66 5.34 8.32 5 9 C0 3.375 0 3.375 0 0 Z " fill="#753D99" transform="translate(210,63)"/>
<path d="M0 0 C0 0.99 0 1.98 0 3 C-4.22222222 6 -4.22222222 6 -7 6 C-7 5.34 -7 4.68 -7 4 C-2.52941176 0 -2.52941176 0 0 0 Z " fill="#613282" transform="translate(707,151)"/>
<path d="M0 0 C0.5775 0.763125 1.155 1.52625 1.75 2.3125 C3.71703093 4.66200917 5.48476744 6.29323505 8 8 C5.6875 8.3125 5.6875 8.3125 3 8 C0.75756777 5.13896577 0 3.65923696 0 0 Z " fill="#602F7D" transform="translate(351,144)"/>
<path d="M0 0 C4.69230769 1.48178138 4.69230769 1.48178138 6.1875 4 C6.455625 4.66 6.72375 5.32 7 6 C7.66 6.66 8.32 7.32 9 8 C8.01 8 7.02 8 6 8 C4.39453125 6.25 4.39453125 6.25 2.8125 4 C2.28269531 3.2575 1.75289062 2.515 1.20703125 1.75 C0.80871094 1.1725 0.41039062 0.595 0 0 Z " fill="#5F3479" transform="translate(766,144)"/>
<path d="M0 0 C2.475 0.495 2.475 0.495 5 1 C5 1.66 5 2.32 5 3 C5.66 3.33 6.32 3.66 7 4 C4 5 4 5 1.8125 4.0625 C1.214375 3.711875 0.61625 3.36125 0 3 C0 2.01 0 1.02 0 0 Z " fill="#6B2F91" transform="translate(365,118)"/>
<path d="M0 0 C1.98 0 3.96 0 6 0 C5.67 1.32 5.34 2.64 5 4 C3.68 3.01 2.36 2.02 1 1 C1 2.98 1 4.96 1 7 C0.67 7 0.34 7 0 7 C0 4.69 0 2.38 0 0 Z " fill="#62387D" transform="translate(723,118)"/>
<path d="M0 0 C0.33 1.32 0.66 2.64 1 4 C-0.98 4.33 -2.96 4.66 -5 5 C-4.1875 3.0625 -4.1875 3.0625 -3 1 C-2.01 0.67 -1.02 0.34 0 0 Z " fill="#6F2D91" transform="translate(79,51)"/>
<path d="M0 0 C2.24027294 2.88035092 4.16172132 5.84866512 6 9 C3.525 8.01 3.525 8.01 1 7 C0.67 4.69 0.34 2.38 0 0 Z " fill="#683982" transform="translate(107,111)"/>
</svg>
