<!DOCTYPE svg PUBLIC "-//W3C//DTD SVG 1.1//EN" "http://www.w3.org/Graphics/SVG/1.1/DTD/svg11.dtd">
<!-- Uploaded to: SVG Repo, www.svgrepo.com, Transformed by: SVG Repo Mixer Tools -->
<svg fill="#000000" width="206px" height="206px" viewBox="0 0 24.00 24.00" id="add-user-9" data-name="Line Color" xmlns="http://www.w3.org/2000/svg" class="icon line-color">
<g id="SVGRepo_bgCarrier" stroke-width="0"/>
<g id="SVGRepo_tracerCarrier" stroke-linecap="round" stroke-linejoin="round"/>
<g id="SVGRepo_iconCarrier">
<path id="secondary" d="M17,5h4M19,3V7" style="fill: none; stroke: #707070; stroke-linecap: round; stroke-linejoin: round; stroke-width:0.36;"/>
<path id="primary" d="M16.65,11a5.71,5.71,0,0,1-1,1.77,1,1,0,0,0,.28,1.45A7,7,0,0,1,19,20a1,1,0,0,1-1,1H4a1,1,0,0,1-1-1,7,7,0,0,1,3.06-5.78,1,1,0,0,0,.28-1.45A5.94,5.94,0,0,1,5,9a6,6,0,0,1,6.73-6,5.47,5.47,0,0,1,1.27.3" style="fill: none; stroke: #707070; stroke-linecap: round; stroke-linejoin: round; stroke-width:0.36;"/>
</g>
</svg>